<svg width="247" height="53" viewBox="0 0 247 53" fill="none" xmlns="http://www.w3.org/2000/svg">
<ellipse cx="123.713" cy="26.5752" rx="123.029" ry="26.3126" fill="#030211"/>
<path d="M59.3211 19.8321V21.2381H53.5641V25.7031H58.2381V27.1091H53.5641V33.0751H51.8351V19.8321H59.3211ZM78.1484 33.2081C76.9197 33.2081 75.7987 32.9231 74.7854 32.3531C73.772 31.7704 72.9677 30.9661 72.3724 29.9401C71.7897 28.9014 71.4984 27.7361 71.4984 26.4441C71.4984 25.1521 71.7897 23.9931 72.3724 22.9671C72.9677 21.9284 73.772 21.1241 74.7854 20.5541C75.7987 19.9714 76.9197 19.6801 78.1484 19.6801C79.3897 19.6801 80.517 19.9714 81.5304 20.5541C82.5437 21.1241 83.3417 21.9221 83.9244 22.9481C84.507 23.9741 84.7984 25.1394 84.7984 26.4441C84.7984 27.7487 84.507 28.9141 83.9244 29.9401C83.3417 30.9661 82.5437 31.7704 81.5304 32.3531C80.517 32.9231 79.3897 33.2081 78.1484 33.2081ZM78.1484 31.7071C79.073 31.7071 79.9027 31.4917 80.6374 31.0611C81.3847 30.6304 81.9674 30.0161 82.3854 29.2181C82.816 28.4201 83.0314 27.4954 83.0314 26.4441C83.0314 25.3801 82.816 24.4554 82.3854 23.6701C81.9674 22.8721 81.391 22.2577 80.6564 21.8271C79.9217 21.3964 79.0857 21.1811 78.1484 21.1811C77.211 21.1811 76.375 21.3964 75.6404 21.8271C74.9057 22.2577 74.323 22.8721 73.8924 23.6701C73.4744 24.4554 73.2654 25.3801 73.2654 26.4441C73.2654 27.4954 73.4744 28.4201 73.8924 29.2181C74.323 30.0161 74.9057 30.6304 75.6404 31.0611C76.3877 31.4917 77.2237 31.7071 78.1484 31.7071ZM104.789 33.0751L101.635 27.6601H99.5449V33.0751H97.8159V19.8321H102.091C103.092 19.8321 103.934 20.0031 104.618 20.3451C105.315 20.6871 105.834 21.1494 106.176 21.7321C106.518 22.3147 106.689 22.9797 106.689 23.7271C106.689 24.6391 106.423 25.4434 105.891 26.1401C105.372 26.8367 104.586 27.2991 103.535 27.5271L106.86 33.0751H104.789ZM99.5449 26.2731H102.091C103.028 26.2731 103.731 26.0451 104.2 25.5891C104.669 25.1204 104.903 24.4997 104.903 23.7271C104.903 22.9417 104.669 22.3337 104.2 21.9031C103.744 21.4724 103.041 21.2571 102.091 21.2571H99.5449V26.2731ZM128.261 19.8321V21.2381H124.651V33.0751H122.922V21.2381H119.293V19.8321H128.261ZM142.816 19.8321V28.2111C142.816 29.3891 143.101 30.2631 143.671 30.8331C144.253 31.4031 145.058 31.6881 146.084 31.6881C147.097 31.6881 147.889 31.4031 148.459 30.8331C149.041 30.2631 149.333 29.3891 149.333 28.2111V19.8321H151.062V28.1921C151.062 29.2941 150.84 30.2251 150.397 30.9851C149.953 31.7324 149.352 32.2897 148.592 32.6571C147.844 33.0244 147.002 33.2081 146.065 33.2081C145.127 33.2081 144.279 33.0244 143.519 32.6571C142.771 32.2897 142.176 31.7324 141.733 30.9851C141.302 30.2251 141.087 29.2941 141.087 28.1921V19.8321H142.816ZM175.093 33.0751H173.364L166.41 22.5301V33.0751H164.681V19.8131H166.41L173.364 30.3391V19.8131H175.093V33.0751ZM190.504 21.2381V25.6651H195.33V27.0901H190.504V31.6501H195.9V33.0751H188.775V19.8131H195.9V21.2381H190.504Z" fill="white"/>
</svg>
