<svg width="1920" height="583" viewBox="0 0 1920 583" fill="none" xmlns="http://www.w3.org/2000/svg">
<g opacity="0.0161">
<path d="M-67.6814 472.86C103.98 422.235 281.363 381.681 460.971 379.561C690.171 377.175 839.262 468.354 1035.4 545.22C1190.85 606.183 1340.89 577.822 1490.62 515.004C1646.39 449.8 1790.07 356.766 1958.24 314.357C1970.64 311.177 1983.03 308.526 1995.11 305.875V4.50763C1983.03 6.89313 1611.42 253.925 1282.08 245.708C1064.96 240.407 686.992 41.3503 457.792 43.4707C277.866 45.061 103.98 119.277 -67.3635 171.492V472.86H-67.6814Z" fill="white"/>
</g>
<g opacity="0.0323">
<path d="M-67.6814 470.21C103.662 420.379 281.363 380.356 460.971 378.236C690.171 375.85 839.262 465.704 1035.4 541.244C1190.85 601.147 1340.89 573.316 1490.62 511.558C1646.39 447.415 1790.07 355.971 1958.24 313.827C1970.64 310.911 1983.03 308.261 1995.11 305.875V9.01361C1983.03 11.3991 1613.33 256.575 1283.99 248.624C1066.87 243.322 689.535 47.1816 460.336 48.2418C280.409 49.302 103.662 120.867 -67.3635 173.348V470.21H-67.6814Z" fill="white"/>
</g>
<g opacity="0.0484">
<path d="M-67.6814 467.294C103.98 418.259 281.363 379.031 460.971 376.91C690.171 374.525 839.262 463.053 1035.4 537.534C1190.85 596.641 1340.89 569.075 1490.62 508.378C1646.39 445.03 1790.07 355.176 1958.24 313.827C1970.64 310.647 1983.03 307.996 1995.11 305.61V13.2545C1983.03 15.64 1615.23 258.696 1286.22 251.009C1069.1 245.973 692.078 52.2176 463.197 52.4827C282.635 53.0128 103.344 121.927 -67.6814 174.938V467.294Z" fill="white"/>
</g>
<g opacity="0.0645">
<path d="M-67.6819 464.644C103.979 416.138 281.362 377.705 460.971 375.585C690.17 373.199 839.261 460.403 1035.4 533.558C1190.85 591.605 1340.89 564.569 1490.62 504.932C1646.39 442.644 1790.07 354.115 1958.24 313.297C1970.32 310.381 1982.72 307.731 1994.79 305.345V17.7604C1982.72 20.1459 1617.14 261.346 1287.81 253.66C1070.69 248.623 694.303 57.5186 465.421 57.2536C284.859 57.2536 103.026 123.252 -67.6819 177.059V464.644Z" fill="white"/>
</g>
<g opacity="0.0806">
<path d="M-67.6814 461.728C103.662 414.018 281.363 376.115 460.971 374.26C690.171 371.874 839.579 457.487 1035.4 529.847C1190.85 587.099 1340.89 560.594 1490.62 501.486C1646.39 440.258 1790.07 353.055 1958.24 313.032C1970.64 310.116 1983.03 307.466 1995.11 305.08V22.0013C1983.03 24.3868 1619.37 263.732 1290.03 256.31C1072.91 251.274 697.164 62.8198 468.283 61.7596C287.721 61.2295 103.026 124.578 -67.6814 178.914V461.728Z" fill="white"/>
</g>
<g opacity="0.0968">
<path d="M-67.6814 459.077C103.662 412.163 281.363 374.79 460.971 372.934C690.171 370.549 839.579 454.837 1035.4 525.871C1190.85 582.328 1340.89 556.088 1490.62 498.041C1646.39 437.873 1790.07 351.995 1958.24 312.502C1970.64 309.586 1983.03 307.201 1995.11 304.815V26.2422C1983.03 28.6277 1621.27 266.117 1291.94 258.696C1074.82 253.66 699.707 67.8559 470.826 66.2656C289.946 64.9403 102.708 125.638 -67.6814 180.504V459.077Z" fill="white"/>
</g>
<g opacity="0.1129">
<path d="M-67.6814 456.427C103.662 410.307 281.363 373.73 460.971 371.609C690.171 369.224 839.579 452.186 1035.72 522.161C1191.17 577.557 1341.21 551.847 1490.94 494.86C1646.7 435.488 1790.39 351.2 1958.56 312.502C1970.64 309.586 1983.03 307.201 1995.11 304.815V31.0132C1983.03 33.1337 1623.18 269.033 1294.16 261.611C1077.04 256.84 702.568 73.4221 473.687 71.0366C292.489 69.1812 102.708 127.228 -67.3635 182.625V456.427H-67.6814Z" fill="white"/>
</g>
<g opacity="0.129">
<path d="M-67.6819 453.511C103.979 408.187 281.362 372.139 460.971 370.284C690.17 368.164 839.579 449.536 1035.4 518.185C1190.85 572.786 1340.89 547.341 1490.62 491.414C1646.39 433.102 1790.07 350.14 1958.24 311.972C1970.32 309.056 1982.72 306.671 1994.79 304.55V35.2542C1982.72 37.3746 1625.09 271.418 1295.75 263.997C1078.63 259.226 704.793 78.4582 475.912 75.5426C294.714 73.1571 101.754 128.289 -67.9998 184.48V453.511H-67.6819Z" fill="white"/>
</g>
<g opacity="0.1452">
<path d="M-67.6814 450.86C103.662 406.331 281.363 370.814 460.971 368.958C690.171 366.573 839.579 446.885 1035.72 514.209C1191.17 567.75 1341.21 542.835 1490.94 487.703C1646.7 430.451 1790.39 348.814 1958.56 311.441C1970.64 308.791 1983.03 306.14 1995.11 304.02V39.2297C1983.03 41.3502 1627.31 273.273 1297.98 266.382C1080.86 261.611 707.655 83.494 478.773 79.7832C297.257 76.8676 101.755 129.348 -67.6814 185.805V450.86Z" fill="white"/>
</g>
<g opacity="0.1613">
<path d="M-67.6819 447.945C103.661 404.211 281.362 369.224 460.971 367.368C690.17 365.248 839.579 443.969 1035.4 510.233C1190.85 562.979 1340.89 538.329 1490.62 484.257C1646.39 428.066 1790.07 347.754 1958.24 310.911C1970.32 308.261 1982.72 305.875 1994.79 303.755V43.7357C1982.72 45.8561 1628.9 275.924 1299.57 269.033C1082.45 264.527 709.879 88.7951 480.998 84.2892C299.164 80.8434 101.118 130.409 -67.9998 187.661V447.945H-67.6819Z" fill="white"/>
</g>
<g opacity="0.1774">
<path d="M-67.6819 445.294C103.661 402.356 281.362 368.163 460.971 366.308C690.17 364.188 839.579 441.584 1035.4 506.787C1190.85 558.473 1340.89 534.353 1490.62 481.342C1646.39 425.945 1790.07 347.224 1958.24 311.176C1970.32 308.526 1982.72 306.14 1994.79 304.02V48.5067C1982.72 50.6272 1631.13 278.84 1301.79 271.948C1084.67 267.442 712.74 94.3613 484.177 89.3253C302.343 85.3495 101.436 132.264 -67.6819 190.046V445.294Z" fill="white"/>
</g>
<g opacity="0.1935">
<path d="M-67.6819 442.379C103.979 400.235 281.362 366.573 460.971 364.717C690.17 362.597 839.579 438.668 1035.4 502.546C1190.85 553.437 1340.89 529.582 1490.62 477.366C1646.39 423.03 1790.07 345.633 1958.24 310.381C1970.32 307.731 1982.72 305.345 1994.79 303.49V52.4823C1982.72 54.6028 1633.03 280.96 1303.7 274.069C1086.58 269.563 715.284 99.132 486.72 93.3008C304.568 88.7949 101.118 133.059 -67.6819 191.106V442.379Z" fill="white"/>
</g>
<g opacity="0.2097">
<path d="M-67.6819 439.728C103.661 398.38 281.362 365.248 460.971 363.392C690.17 361.272 839.579 436.017 1035.4 498.835C1190.85 548.666 1340.89 525.606 1490.62 474.185C1646.39 420.909 1790.07 345.103 1958.24 310.116C1970.32 307.466 1982.72 305.345 1994.79 303.225V56.9884C1982.72 59.1088 1634.94 283.611 1305.61 276.984C1088.49 272.743 717.827 104.698 489.263 98.337C307.112 93.3009 100.8 134.65 -67.9998 193.492V439.728H-67.6819Z" fill="white"/>
</g>
<g opacity="0.2258">
<path d="M-67.6814 437.078C103.662 396.524 281.363 363.923 460.971 362.332C690.171 360.212 839.579 433.632 1035.4 495.125C1190.85 544.16 1340.89 521.365 1490.62 471.005C1646.39 418.789 1790.07 344.308 1958.24 310.116C1970.64 307.201 1983.03 305.08 1995.11 303.225V61.4945C1983.03 63.3499 1637.17 285.996 1308.15 279.635C1091.03 275.394 721.006 110 492.443 102.843C309.973 97.0119 101.119 135.975 -67.3635 195.347V437.078H-67.6814Z" fill="white"/>
</g>
<g opacity="0.2419">
<path d="M-67.6814 434.162C103.662 394.139 281.363 362.332 460.971 360.742C690.171 358.886 839.579 430.716 1035.4 491.149C1190.85 539.124 1340.89 516.859 1490.62 467.559C1646.39 416.138 1790.07 343.248 1958.24 309.586C1970.64 306.936 1983.03 304.815 1995.11 302.96V65.7353C1983.03 67.5907 1639.39 288.382 1310.06 282.02C1092.94 277.779 723.549 115.036 494.986 107.349C312.198 100.988 100.801 137.035 -67.3635 197.203V434.162H-67.6814Z" fill="white"/>
</g>
<g opacity="0.2581">
<path d="M-67.6814 431.511C103.98 392.283 281.363 361.007 460.971 359.416C690.171 357.561 839.579 427.801 1035.4 487.173C1190.85 534.353 1340.89 512.353 1490.62 463.848C1646.39 413.488 1790.07 341.923 1958.24 309.056C1970.64 306.67 1983.03 304.55 1995.11 302.695V70.241C1983.03 72.0964 1641.3 291.032 1311.97 284.936C1094.85 280.96 726.092 120.602 497.529 112.12C314.741 105.228 100.483 138.625 -67.6814 199.058V431.511Z" fill="white"/>
</g>
<g opacity="0.2742">
<path d="M-67.6814 428.596C103.662 390.163 281.363 359.681 460.971 358.091C690.171 356.236 839.579 425.15 1035.4 483.462C1190.85 529.582 1340.89 508.112 1490.62 460.667C1646.39 411.367 1790.07 341.128 1958.24 308.791C1970.64 306.405 1983.03 304.285 1995.11 302.429V74.4819C1983.03 76.3373 1643.21 293.418 1313.87 287.321C1096.75 283.345 728.635 125.638 500.072 116.361C316.967 108.939 100.165 139.42 -67.6814 200.648V428.596Z" fill="white"/>
</g>
<g opacity="0.2903">
<path d="M-67.6814 425.945C103.662 388.307 281.363 358.356 460.971 356.766C690.171 354.91 839.579 422.5 1035.4 479.486C1191.17 524.811 1341.21 503.606 1490.94 457.222C1646.7 408.982 1790.39 340.067 1958.56 308.526C1970.64 306.14 1983.03 304.02 1995.11 302.164V78.7229C1983.03 80.5783 1645.12 295.803 1316.1 289.707C1098.98 285.731 731.497 130.674 502.933 120.867C319.51 112.915 100.165 140.746 -67.3635 202.504V425.945H-67.6814Z" fill="white"/>
</g>
<g opacity="0.3065">
<path d="M-67.6814 423.03C103.662 386.187 281.363 356.766 460.971 355.44C690.171 353.585 839.579 419.849 1035.4 475.51C1191.17 519.775 1340.89 499.1 1490.62 453.776C1646.39 406.331 1790.07 339.007 1958.24 307.996C1970.64 305.875 1983.03 303.755 1995.11 301.899V83.2287C1983.03 85.0841 1647.34 298.189 1318.01 292.357C1100.89 288.382 734.04 135.975 505.476 125.372C322.053 116.891 99.8472 142.071 -67.6814 204.094V423.03Z" fill="white"/>
</g>
<g opacity="0.3226">
<path d="M-67.6814 420.379C103.662 384.332 281.363 355.706 460.971 354.116C690.171 352.26 839.897 417.199 1035.72 471.8C1191.48 515.269 1341.21 494.86 1490.94 450.331C1646.7 403.946 1790.39 337.947 1958.56 307.731C1970.64 305.61 1983.03 303.49 1995.11 301.9V87.735C1983.03 89.5904 1649.25 300.839 1319.91 295.273C1102.79 291.563 736.583 141.541 508.019 130.409C324.278 121.397 99.5293 143.662 -67.6814 206.48V420.379Z" fill="white"/>
</g>
<g opacity="0.3387">
<path d="M-67.6814 417.729C103.662 382.477 281.363 354.381 460.971 352.79C690.171 350.935 839.579 414.548 1035.4 467.824C1191.17 510.233 1340.89 490.619 1490.62 446.885C1646.39 401.561 1790.07 336.887 1958.24 307.201C1970.64 305.345 1983.03 303.225 1995.11 301.635V91.976C1983.03 93.5663 1651.16 303.225 1322.14 297.659C1105.02 293.948 739.444 146.577 511.198 134.65C327.457 125.108 99.8472 144.722 -67.3635 208.07V417.729H-67.6814Z" fill="white"/>
</g>
<g opacity="0.3548">
<path d="M-67.6814 414.813C103.662 380.356 281.363 352.79 460.971 351.465C690.171 349.874 839.579 411.897 1035.4 464.113C1191.17 505.727 1340.89 486.378 1490.62 443.704C1646.39 399.44 1790.07 336.092 1958.24 307.201C1970.64 304.815 1983.03 302.96 1995.11 301.369V96.4816C1983.03 98.0719 1653.38 305.875 1324.05 300.309C1106.93 296.598 741.987 151.878 513.741 139.155C329.682 128.818 99.5293 145.782 -67.3635 209.925V414.813H-67.6814Z" fill="white"/>
</g>
<g opacity="0.371">
<path d="M-67.6814 412.163C103.662 378.501 281.363 351.465 460.971 350.14C690.171 348.549 839.579 409.247 1035.4 460.138C1191.17 500.691 1340.89 481.872 1490.62 439.993C1646.39 396.524 1790.07 335.032 1958.24 306.671C1970.64 304.55 1983.03 302.695 1995.11 301.104V100.723C1983.03 102.313 1655.29 308.261 1325.95 302.695C1108.83 299.249 744.53 156.914 516.284 143.662C331.907 132.794 99.2114 147.107 -67.3635 211.516V412.163H-67.6814Z" fill="white"/>
</g>
<g opacity="0.3871">
<path d="M-67.6814 409.247C103.98 376.38 281.363 350.139 460.971 348.814C690.171 347.224 839.897 406.331 1035.72 456.426C1191.48 496.185 1341.21 477.631 1490.94 436.812C1646.7 394.404 1790.39 334.236 1958.56 306.405C1970.64 304.285 1983.03 302.429 1995.11 300.839V104.963C1983.03 106.554 1657.2 310.381 1327.86 305.345C1110.74 301.899 747.073 162.215 518.828 148.167C334.451 136.77 98.8934 148.167 -67.6814 213.371V409.247Z" fill="white"/>
</g>
<g opacity="0.4032">
<path d="M-67.6814 406.596C103.662 374.525 281.363 348.814 460.971 347.489C690.171 345.899 839.579 403.946 1035.4 452.451C1191.17 491.149 1340.89 473.125 1490.62 433.367C1646.39 392.018 1790.07 333.176 1958.24 306.141C1970.64 304.02 1983.03 302.165 1995.11 300.839V109.735C1983.03 111.325 1659.1 313.297 1330.09 308.261C1112.97 304.815 749.934 167.782 521.688 153.204C336.994 141.276 98.8936 150.023 -67.3635 215.757V406.596H-67.6814Z" fill="white"/>
</g>
<g opacity="0.4194">
<path d="M-67.6814 403.681C103.662 372.404 281.363 347.224 460.971 345.899C690.171 344.574 839.897 401.03 1035.72 448.475C1191.48 486.378 1341.21 468.619 1490.94 429.921C1646.7 389.633 1790.39 332.116 1958.56 305.61C1970.64 303.755 1983.03 301.9 1995.11 300.309V113.711C1983.03 115.301 1661.33 315.418 1331.99 310.381C1114.87 307.201 752.477 172.553 524.232 157.18C339.219 144.722 98.5756 150.818 -67.3635 216.817V403.681H-67.6814Z" fill="white"/>
</g>
<g opacity="0.4355">
<path d="M-67.6814 401.03C103.662 370.284 281.363 345.899 460.971 344.838C690.171 343.248 839.579 398.38 1035.4 444.764C1191.17 481.607 1340.89 464.378 1490.62 426.475C1646.39 386.982 1790.07 331.056 1958.24 305.345C1970.64 303.49 1983.03 301.634 1995.11 300.309V118.216C1983.03 119.806 1663.24 318.068 1333.9 313.297C1116.78 310.116 755.021 178.119 526.775 162.215C341.762 149.228 98.2577 152.408 -67.6814 219.202V401.03Z" fill="white"/>
</g>
<g opacity="0.4516">
<path d="M-67.6814 398.38C103.98 368.428 281.363 344.573 460.971 343.513C690.171 341.923 839.897 395.729 1035.72 440.788C1191.48 476.836 1341.21 459.872 1490.94 423.03C1646.7 384.597 1790.39 329.995 1958.56 304.815C1970.64 303.225 1983.03 301.634 1995.11 300.044V122.722C1983.03 124.047 1665.14 320.718 1335.81 315.947C1118.69 312.767 757.564 183.42 529.318 166.721C343.987 153.203 97.9398 153.734 -67.6814 221.058V398.38Z" fill="white"/>
</g>
<g opacity="0.4677">
<path d="M-67.6814 395.464C103.662 366.308 281.363 343.248 460.971 341.923C690.171 340.598 839.579 392.813 1035.4 436.813C1191.17 471.8 1340.89 455.632 1490.62 419.584C1646.39 382.211 1790.07 328.935 1958.24 304.55C1970.64 302.96 1983.03 301.369 1995.11 299.779V126.963C1983.03 128.288 1667.37 323.104 1338.03 318.333C1120.91 315.152 760.425 188.456 532.179 170.962C346.848 156.914 97.9398 154.529 -67.6814 222.383V395.464Z" fill="white"/>
</g>
<g opacity="0.4839">
<path d="M-67.6814 392.814C103.98 364.453 281.363 341.923 460.971 340.598C690.171 339.272 839.897 390.428 1035.72 433.102C1191.48 467.294 1341.21 451.391 1490.94 416.404C1646.7 380.091 1790.39 328.14 1958.56 304.285C1970.64 302.43 1983.03 301.105 1995.11 299.514V131.204C1983.03 132.529 1669.27 325.225 1339.94 320.719C1122.82 317.803 762.968 193.492 534.722 175.468C349.074 160.89 97.6218 155.854 -67.6814 224.239V392.814Z" fill="white"/>
</g>
<g opacity="0.5">
<path d="M-67.6814 389.898C103.98 362.332 281.363 340.598 460.971 339.272C690.171 337.947 839.897 386.982 1035.72 429.391C1191.48 461.993 1341.21 447.15 1490.94 412.958C1646.7 377.44 1790.39 327.08 1958.56 304.02C1970.64 302.165 1983.03 300.839 1995.11 299.514V135.975C1983.03 137.3 1671.18 328.14 1341.85 323.899C1124.73 320.984 765.511 199.323 537.265 180.504C351.299 165.131 97.304 157.445 -67.6814 226.624V389.898Z" fill="white"/>
</g>
<g opacity="0.5161">
<path d="M-67.6814 389.103C103.662 361.802 281.363 340.067 460.971 338.742C690.171 337.417 839.579 386.717 1035.4 428.066C1191.17 460.933 1340.89 445.559 1490.62 411.897C1646.39 376.645 1790.07 326.815 1958.24 303.755C1970.64 302.165 1983.03 300.574 1995.11 299.249V140.216C1983.03 141.541 1671.18 329.2 1341.85 324.959C1124.73 322.044 765.511 202.769 537.265 184.215C351.299 169.107 97.304 161.685 -67.6814 230.335V389.103Z" fill="white"/>
</g>
<g opacity="0.5323">
<path d="M-67.6814 388.308C103.662 361.272 281.363 339.537 460.971 338.477C690.171 337.152 839.579 385.922 1035.4 427.006C1191.17 459.607 1340.89 444.499 1490.62 410.837C1646.39 375.85 1790.07 326.285 1958.24 303.49C1970.64 301.9 1983.03 300.309 1995.11 298.984V144.192C1983.03 145.517 1671.18 329.995 1341.85 325.755C1124.73 322.839 765.511 205.95 537.265 187.396C351.299 172.288 97.304 165.396 -67.6814 233.25V388.308Z" fill="white"/>
</g>
<g opacity="0.5484">
<path d="M-67.6814 387.512C103.98 360.477 281.363 339.007 460.971 337.947C690.171 336.622 839.897 385.127 1035.72 425.68C1191.48 458.017 1341.21 442.909 1490.94 409.777C1646.7 375.055 1790.39 326.02 1958.56 303.225C1970.64 301.635 1983.03 300.309 1995.11 298.984V148.698C1983.03 150.023 1671.18 331.321 1341.85 327.08C1124.73 324.164 765.511 209.395 537.265 191.107C351.299 176.263 97.304 169.372 -67.6814 236.961V387.512Z" fill="white"/>
</g>
<g opacity="0.5645">
<path d="M-67.6814 386.452C103.662 359.682 281.363 338.477 460.971 337.417C690.171 336.092 839.897 384.332 1035.72 424.62C1191.48 456.692 1341.21 441.849 1490.94 408.717C1646.7 374.26 1790.39 325.49 1958.56 302.96C1970.64 301.37 1983.03 300.044 1995.11 298.719V152.939C1983.03 154.264 1671.18 332.381 1341.85 328.14C1124.73 325.225 765.511 212.841 537.265 194.817C351.299 179.974 97.304 173.613 -67.6814 240.672V386.452Z" fill="white"/>
</g>
<g opacity="0.5806">
<path d="M-67.6814 385.657C103.662 359.151 281.363 337.947 460.971 336.887C690.171 335.561 839.579 383.271 1035.4 423.295C1191.17 455.101 1340.89 440.258 1490.62 407.656C1646.39 373.464 1790.07 325.224 1958.24 302.959C1970.64 301.369 1983.03 299.779 1995.11 298.454V157.179C1983.03 158.504 1671.18 333.441 1341.85 329.2C1124.73 326.549 765.511 216.286 537.265 198.263C351.299 183.685 97.304 177.588 -67.6814 243.852V385.657Z" fill="white"/>
</g>
<g opacity="0.5968">
<path d="M-67.6814 384.862C103.662 358.621 281.363 337.682 460.971 336.622C690.171 335.296 839.579 382.741 1035.4 422.499C1191.17 454.041 1340.89 439.463 1490.62 406.861C1646.39 373.199 1790.07 324.959 1958.24 302.96C1970.64 301.104 1983.03 299.514 1995.11 298.454V161.685C1983.03 163.01 1671.18 334.501 1341.85 330.525C1124.73 327.875 765.511 219.997 537.265 201.974C351.299 187.395 97.304 181.564 -67.6814 247.563V384.862Z" fill="white"/>
</g>
<g opacity="0.6129">
<path d="M-67.6814 383.801C103.98 357.826 281.363 337.152 460.971 336.092C690.171 334.766 839.897 381.681 1035.72 421.174C1191.48 452.451 1341.21 437.873 1490.94 405.801C1646.7 372.404 1790.39 324.694 1958.56 302.695C1970.64 300.839 1983.03 299.514 1995.11 298.189V165.926C1983.03 167.251 1671.18 335.561 1341.85 331.586C1124.73 328.935 765.511 223.443 537.265 205.684C351.299 191.106 97.304 185.805 -67.6814 251.274V383.801Z" fill="white"/>
</g>
<g opacity="0.629">
<path d="M-67.6814 383.006C103.98 357.296 281.363 336.622 460.971 335.561C690.171 334.236 839.897 380.886 1035.4 419.849C1191.17 450.86 1340.89 436.547 1490.62 404.476C1646.39 371.344 1790.07 323.899 1958.24 302.164C1970.64 300.574 1983.03 299.249 1995.11 297.924V169.902C1983.03 171.227 1671.18 336.357 1341.85 332.381C1124.73 329.73 765.511 226.624 537.265 208.865C351.299 194.552 97.304 189.516 -67.6814 254.189V383.006Z" fill="white"/>
</g>
<g opacity="0.6452">
<path d="M-67.6814 382.211C103.662 356.501 281.363 336.092 460.971 335.031C690.171 333.706 839.897 380.091 1035.4 418.789C1191.17 449.535 1340.89 435.222 1490.62 403.681C1646.39 370.814 1790.07 323.634 1958.24 302.165C1970.64 300.574 1983.03 298.984 1995.11 297.924V174.408C1983.03 175.733 1671.18 337.682 1341.85 333.706C1124.73 331.056 765.511 230.069 537.265 212.841C351.299 198.528 97.304 193.757 -67.6814 258.165V382.211Z" fill="white"/>
</g>
<g opacity="0.6613">
<path d="M-67.6814 381.416C103.662 355.971 281.363 335.827 460.971 334.766C690.171 333.176 839.897 379.031 1035.72 417.729C1191.48 448.475 1341.21 434.162 1490.94 402.621C1646.7 370.019 1790.39 323.369 1958.56 301.9C1970.64 300.309 1983.03 298.984 1995.11 297.659V178.649C1983.03 179.974 1671.18 338.742 1341.85 334.766C1124.73 332.116 765.511 233.515 537.265 216.287C351.299 202.239 97.304 197.733 -67.6814 261.611V381.416Z" fill="white"/>
</g>
<g opacity="0.6774">
<path d="M-67.6814 380.356C103.98 355.176 281.363 335.032 460.971 333.971C690.171 332.646 839.897 378.236 1035.4 416.404C1191.17 446.885 1340.89 432.572 1490.62 401.56C1646.39 369.224 1790.07 322.839 1958.24 301.635C1970.64 300.044 1983.03 298.719 1995.11 297.394V182.89C1983.03 184.215 1671.18 339.803 1341.85 335.827C1124.73 333.176 765.511 236.961 537.265 219.733C351.299 205.685 97.304 201.709 -67.6814 264.792V380.356Z" fill="white"/>
</g>
<g opacity="0.6935">
<path d="M-67.6814 379.561C103.662 354.646 281.363 334.501 460.971 333.441C690.171 332.116 839.897 377.175 1035.4 415.078C1191.17 445.295 1340.89 431.247 1490.62 400.235C1646.39 368.163 1790.07 322.309 1958.24 301.104C1970.64 299.779 1983.03 298.454 1995.11 297.394V187.396C1983.03 188.721 1671.18 341.128 1341.85 337.152C1124.73 334.501 765.511 240.672 537.265 223.708C351.299 209.925 97.304 205.95 -67.6814 268.768V379.561Z" fill="white"/>
</g>
<g opacity="0.7097">
<path d="M-67.6814 378.766C103.662 353.85 281.363 334.236 460.971 333.176C690.171 331.851 839.897 376.645 1035.4 414.283C1191.17 444.234 1340.89 430.186 1490.62 399.44C1646.39 367.633 1790.07 322.044 1958.24 301.369C1970.64 299.779 1983.03 298.189 1995.11 297.129V191.637C1983.03 192.962 1671.18 342.188 1341.85 338.212C1124.73 335.562 765.511 244.118 537.265 227.154C351.299 213.371 97.304 209.925 -67.6814 272.213V378.766Z" fill="white"/>
</g>
<g opacity="0.7258">
<path d="M-67.6814 482.359C103.662 457.709 281.363 438.095 460.971 437.035C690.171 435.71 839.897 480.239 1035.72 517.347C1191.48 547.033 1341.21 533.25 1490.94 502.769C1646.7 471.227 1790.39 426.168 1958.56 405.493C1970.64 403.903 1983.03 402.578 1995.11 401.252V300.001C1983.03 301.327 1671.18 447.372 1341.85 443.396C1124.73 440.746 765.511 351.422 537.265 334.724C351.299 321.206 97.304 318.025 -67.6814 379.518V482.359Z" fill="white"/>
</g>
<g opacity="0.7419">
<path d="M-67.6814 376.91C103.98 352.525 281.363 333.176 460.971 332.116C690.171 330.791 839.897 374.79 1035.4 411.632C1191.17 441.054 1340.89 427.271 1490.62 397.054C1646.39 365.778 1790.07 320.984 1958.24 300.574C1970.64 299.249 1983.03 297.924 1995.11 296.864V200.118C1983.03 201.179 1671.18 344.043 1341.85 340.333C1124.73 337.682 765.511 250.744 537.265 234.311C351.299 220.793 97.304 217.877 -67.6814 279.105V376.91Z" fill="white"/>
</g>
<g opacity="0.7581">
<path d="M-67.6814 376.115C103.662 351.995 281.363 332.646 460.971 331.586C690.171 330.26 839.897 373.994 1035.4 410.572C1191.17 439.728 1340.89 426.21 1490.62 396.259C1646.39 365.248 1790.07 320.983 1958.24 300.574C1970.64 298.984 1983.03 297.658 1995.11 296.598V204.359C1983.03 205.419 1671.18 345.103 1341.85 341.393C1124.73 338.742 765.511 254.189 537.265 237.756C351.299 224.238 97.304 221.853 -67.6814 282.55V376.115Z" fill="white"/>
</g>
<g opacity="0.7742">
<path d="M-67.6814 375.32C103.662 351.465 281.363 332.381 460.971 331.321C690.171 329.996 839.897 373.2 1035.4 409.512C1191.17 438.403 1340.89 424.885 1490.62 395.199C1646.39 364.453 1790.07 320.454 1958.24 300.309C1970.64 298.984 1983.03 297.659 1995.11 296.334V208.6C1983.03 209.661 1671.18 346.164 1341.85 342.453C1124.73 340.068 765.511 257.636 537.265 241.202C351.299 227.949 97.304 225.829 -67.6814 285.731V375.32Z" fill="white"/>
</g>
<g opacity="0.7903">
<path d="M-67.6814 374.525C103.662 350.67 281.363 331.851 460.971 330.79C690.171 329.465 839.897 372.404 1035.72 408.187C1191.48 436.813 1341.21 423.56 1490.94 394.139C1646.7 363.657 1790.39 320.188 1958.56 300.044C1970.64 298.454 1983.03 297.393 1995.11 296.068V212.841C1983.03 213.901 1671.18 347.224 1341.85 343.513C1124.73 341.128 765.511 261.081 537.265 244.913C351.299 231.66 97.304 229.804 -67.6814 289.442V374.525Z" fill="white"/>
</g>
<g opacity="0.8065">
<path d="M-67.6819 373.464C103.979 349.874 281.362 331.321 460.971 330.26C690.17 329.2 839.897 371.609 1035.4 407.126C1191.17 435.487 1340.89 422.234 1490.62 393.078C1646.39 362.862 1790.07 319.658 1958.24 299.779C1970.32 298.454 1982.72 297.128 1994.79 295.803V217.082C1983.03 218.407 1671.18 348.549 1341.85 344.573C1124.73 342.188 765.51 264.527 537.265 248.358C351.298 235.371 97.3036 233.78 -67.6819 292.888V373.464Z" fill="white"/>
</g>
<g opacity="0.8226">
<path d="M-67.6814 372.669C103.662 349.344 281.363 330.791 460.971 329.73C690.171 328.67 839.897 370.549 1035.72 406.066C1191.48 434.162 1341.21 421.174 1490.94 392.283C1646.7 362.332 1790.39 319.658 1958.56 300.044C1970.64 298.719 1983.03 297.394 1995.11 296.068V221.588C1983.03 222.648 1671.18 349.61 1341.85 345.899C1124.73 343.513 765.511 267.973 537.265 252.334C351.299 239.347 97.304 238.286 -67.6814 296.598V372.669Z" fill="white"/>
</g>
<g opacity="0.8387">
<path d="M-67.6814 371.874C103.662 348.814 281.363 330.26 460.971 329.465C690.171 328.405 839.897 370.019 1035.4 405.006C1191.17 432.837 1340.89 419.849 1490.62 391.223C1646.39 361.537 1790.07 319.128 1958.24 299.779C1970.64 298.189 1983.03 296.863 1995.11 295.803V225.829C1983.03 226.889 1671.18 350.67 1341.85 346.959C1124.73 344.573 765.511 271.418 537.265 255.78C351.299 243.057 97.304 241.997 -67.6814 300.044V371.874Z" fill="white"/>
</g>
<g opacity="0.8548">
<path d="M-67.6819 370.814C103.661 348.019 281.362 329.73 460.971 328.67C690.17 327.61 839.897 368.694 1035.4 403.416C1191.17 430.981 1340.89 418.259 1490.62 389.898C1646.39 360.477 1790.07 318.598 1958.24 299.249C1970.32 297.924 1982.72 296.598 1994.79 295.538V230.07C1982.72 231.13 1670.86 351.73 1341.53 348.019C1124.41 345.634 765.193 274.864 536.947 259.226C350.98 246.503 96.9856 245.973 -67.9998 303.49V370.814H-67.6819Z" fill="white"/>
</g>
<g opacity="0.871">
<path d="M-67.6819 370.019C103.661 347.224 281.362 329.2 460.971 328.14C690.17 327.08 839.897 367.898 1035.4 402.355C1191.17 429.656 1340.89 416.934 1490.62 388.838C1646.39 359.682 1790.07 318.068 1958.24 298.984C1970.32 297.659 1982.72 296.333 1994.79 295.273V234.31C1982.72 235.371 1670.86 352.79 1341.53 349.079C1124.41 346.694 765.193 278.31 536.947 262.936C350.98 250.214 96.9856 250.214 -67.9998 307.201V370.019H-67.6819Z" fill="white"/>
</g>
<g opacity="0.8871">
<path d="M-67.6819 369.223C103.979 346.694 281.362 328.67 460.971 327.875C690.17 326.814 839.897 367.368 1035.4 401.295C1191.17 428.331 1340.89 415.873 1490.62 388.042C1646.39 359.151 1790.07 317.803 1958.24 298.984C1970.32 297.658 1982.72 296.333 1994.79 295.273V238.551C1982.72 239.611 1670.86 353.585 1341.53 350.139C1124.41 347.754 765.193 281.755 536.947 266.382C350.98 253.924 96.9856 253.924 -67.9998 310.381V369.223H-67.6819Z" fill="white"/>
</g>
<g opacity="0.9032">
<path d="M-67.6814 368.428C103.662 346.163 281.363 328.405 460.971 327.345C690.171 326.284 839.897 366.308 1035.72 400.235C1191.48 427.005 1341.21 414.548 1490.94 386.982C1646.7 358.356 1790.39 317.538 1958.56 298.719C1970.64 297.393 1983.03 296.068 1995.11 295.008V243.057C1983.03 244.117 1671.18 354.91 1341.85 351.465C1124.73 349.079 765.511 285.466 537.265 270.093C351.299 257.635 97.304 258.165 -67.6814 314.092V368.428Z" fill="white"/>
</g>
<g opacity="0.9194">
<path d="M-67.6819 367.368C103.661 345.368 281.362 327.61 460.971 326.814C690.17 325.754 839.897 365.513 1035.4 398.91C1191.17 425.415 1340.89 413.222 1490.62 385.922C1646.39 357.561 1790.07 317.007 1958.24 298.454C1970.32 297.128 1982.72 295.803 1994.79 294.743V247.033C1982.72 248.093 1670.86 355.706 1341.53 352.26C1124.41 349.874 765.193 288.381 536.947 273.538C350.98 261.346 96.9856 262.141 -67.9998 317.538V367.368H-67.6819Z" fill="white"/>
</g>
<g opacity="0.9355">
<path d="M-67.6814 366.573C103.662 344.573 281.363 327.345 460.971 326.285C690.171 325.224 839.897 364.718 1035.4 397.584C1191.48 424.09 1341.21 411.897 1490.94 384.862C1646.7 356.766 1790.39 316.743 1958.56 298.454C1970.64 296.863 1983.03 295.803 1995.11 294.743V251.539C1983.03 252.599 1671.18 357.031 1341.85 353.585C1124.73 351.2 765.511 292.092 537.265 277.249C351.617 265.057 97.6218 266.117 -67.6814 320.983V366.573Z" fill="white"/>
</g>
<g opacity="0.9516">
<path d="M-67.6819 365.778C103.661 344.043 281.362 326.815 460.971 326.019C690.17 324.959 839.897 363.922 1035.4 396.789C1191.17 422.765 1340.89 410.837 1490.62 384.067C1646.39 356.236 1790.07 316.478 1958.24 298.454C1970.32 297.128 1982.72 295.803 1994.79 294.743V256.045C1982.72 257.105 1670.86 358.356 1341.53 354.911C1124.41 352.525 765.193 295.803 536.947 280.96C350.98 269.033 96.9856 270.358 -67.9998 324.694V365.778H-67.6819Z" fill="white"/>
</g>
<g opacity="0.9677">
<path d="M-67.6814 364.983C103.662 343.513 281.363 326.55 460.971 325.489C690.171 324.429 839.897 363.127 1035.72 395.464C1191.48 421.174 1341.21 409.247 1490.94 382.741C1646.7 355.175 1790.39 315.947 1958.56 297.924C1970.64 296.598 1983.03 295.273 1995.11 294.213V260.021C1983.03 261.081 1671.18 359.151 1341.85 355.706C1124.73 353.585 765.511 298.984 537.265 284.406C351.299 272.478 97.304 274.334 -67.6814 328.14V364.983Z" fill="white"/>
</g>
<g opacity="0.9839">
<path d="M-67.6814 363.922C103.662 342.718 281.363 325.754 460.971 324.959C690.171 323.899 839.897 362.067 1035.4 394.404C1191.17 419.849 1340.89 408.187 1490.62 381.681C1646.39 354.38 1790.07 315.417 1958.24 297.659C1970.64 296.333 1983.03 295.273 1995.11 294.213V264.527C1983.03 265.587 1671.18 360.477 1341.85 357.031C1124.73 354.91 765.511 302.695 537.265 288.117C351.299 276.454 97.304 278.309 -67.6814 331.586V363.922Z" fill="white"/>
</g>
<path d="M-67.6814 363.127C103.662 342.188 281.363 325.224 460.971 324.429C690.171 323.369 839.897 361.007 1035.72 393.078C1191.48 417.994 1341.21 406.596 1490.94 380.621C1646.7 353.585 1790.39 315.152 1958.56 297.393C1970.64 296.068 1983.03 295.008 1995.11 293.948V268.767C1983.03 269.828 1671.18 361.537 1341.85 358.091C1124.73 355.971 765.511 305.875 537.265 291.827C351.299 280.165 97.304 282.55 -67.6814 335.296V363.127Z" fill="white"/>
</svg>
