<svg width="853" height="816" viewBox="0 0 853 816" fill="none" xmlns="http://www.w3.org/2000/svg">
<g filter="url(#filter0_d_103_2965)">
<path d="M364.734 87.1689C362.061 77.1922 351.778 71.2086 342.013 74.5732C286.302 93.7688 238.319 130.936 205.791 180.489C169.832 235.27 155.274 301.361 164.888 366.18C174.502 430.999 207.617 490.02 257.928 532.004C308.24 573.989 372.234 596.006 437.727 593.864C503.22 591.722 565.639 565.57 613.099 520.387C660.559 475.205 689.747 414.147 695.105 348.838C700.463 283.529 681.616 218.53 642.155 166.217C606.459 118.895 556.149 84.9426 499.302 69.4286C489.338 66.7092 479.469 73.3521 477.453 83.482C475.438 93.6119 482.046 103.383 491.978 106.216C539.825 119.863 582.128 148.75 612.295 188.741C646.228 233.726 662.434 289.619 657.827 345.78C653.22 401.94 628.121 454.444 587.309 493.298C546.498 532.151 492.823 554.639 436.504 556.481C380.186 558.323 325.156 539.391 281.893 503.287C238.629 467.184 210.153 416.432 201.886 360.693C193.619 304.954 206.138 248.121 237.059 201.014C264.548 159.138 304.873 127.548 351.726 110.803C361.452 107.327 367.407 97.1454 364.734 87.1689Z" fill="#E6E1E1"/>
<g filter="url(#filter1_bdi_103_2965)">
<rect x="303.998" y="216.3" width="234.007" height="234.007" rx="117.003" transform="rotate(-0.561514 303.998 216.3)" fill="url(#paint0_linear_103_2965)" fill-opacity="0.93" shape-rendering="crispEdges"/>
</g>
<g filter="url(#filter2_bdi_103_2965)">
<rect x="322.975" y="234.909" width="196.42" height="196.42" rx="98.2101" transform="rotate(-0.561514 322.975 234.909)" fill="url(#paint1_linear_103_2965)" fill-opacity="0.93" shape-rendering="crispEdges"/>
</g>
<path d="M359.986 326.207C359.986 329.335 360.689 332.078 362.094 334.435C363.545 336.747 365.426 338.538 367.738 339.807C370.05 341.031 372.566 341.643 375.286 341.643C377.553 341.643 379.57 341.348 381.338 340.759C383.106 340.17 384.693 339.376 386.098 338.379C387.549 337.382 388.795 336.294 389.838 335.115V346.063C387.889 347.604 385.758 348.806 383.446 349.667C381.179 350.528 378.301 350.959 374.81 350.959C371.183 350.959 367.806 350.37 364.678 349.191C361.595 348.012 358.898 346.312 356.586 344.091C354.319 341.87 352.551 339.263 351.282 336.271C350.058 333.234 349.446 329.879 349.446 326.207C349.446 322.535 350.058 319.203 351.282 316.211C352.551 313.174 354.319 310.544 356.586 308.323C358.898 306.102 361.595 304.402 364.678 303.223C367.806 302.044 371.183 301.455 374.81 301.455C378.301 301.455 381.179 301.886 383.446 302.747C385.758 303.608 387.889 304.81 389.838 306.351V317.299C388.795 316.12 387.549 315.032 386.098 314.035C384.693 313.038 383.106 312.244 381.338 311.655C379.57 311.066 377.553 310.771 375.286 310.771C372.566 310.771 370.05 311.406 367.738 312.675C365.426 313.899 363.545 315.667 362.094 317.979C360.689 320.291 359.986 323.034 359.986 326.207ZM410.326 327.839H420.594L436.098 350.007H424.606L410.326 327.839ZM399.514 302.407H409.238V350.007H399.514V302.407ZM405.43 310.703V302.407H415.494C419.256 302.407 422.452 303.042 425.082 304.311C427.711 305.58 429.728 307.348 431.134 309.615C432.539 311.882 433.242 314.534 433.242 317.571C433.242 320.563 432.539 323.215 431.134 325.527C429.728 327.794 427.711 329.562 425.082 330.831C422.452 332.1 419.256 332.735 415.494 332.735H405.43V324.983H414.882C416.604 324.983 418.078 324.711 419.302 324.167C420.571 323.578 421.546 322.762 422.226 321.719C422.906 320.631 423.246 319.339 423.246 317.843C423.246 316.347 422.906 315.078 422.226 314.035C421.546 312.947 420.571 312.131 419.302 311.587C418.078 310.998 416.604 310.703 414.882 310.703H405.43ZM452.154 323.283L449.094 350.007H438.962L446.034 300.027L465.958 330.763L485.882 300.027L492.954 350.007H482.822L479.762 323.283L465.958 345.587L452.154 323.283Z" fill="#303030"/>
<g filter="url(#filter3_bdi_103_2965)">
<path d="M536.651 148.937C536.29 112.142 565.827 82.0207 602.622 81.6601C639.418 81.2995 669.539 110.836 669.899 147.631C670.26 184.427 640.724 214.548 603.928 214.908C567.133 215.269 537.012 185.733 536.651 148.937Z" fill="url(#paint2_linear_103_2965)" fill-opacity="0.93" shape-rendering="crispEdges"/>
</g>
<circle cx="589.607" cy="163.616" r="16.5" fill="#E0D9FF"/>
<path d="M587.107 151.116V164.546C587.107 164.962 587.276 165.362 587.576 165.656C587.876 165.951 588.283 166.116 588.707 166.116H617.507C617.932 166.116 618.339 165.951 618.639 165.656C618.939 165.362 619.107 164.962 619.107 164.546V151.116" stroke="#6B49F1" stroke-width="3" stroke-linecap="round" stroke-linejoin="round"/>
<path d="M587.691 130.116H618.524C618.886 130.119 619.237 130.242 619.525 130.466C619.814 130.689 620.026 131.003 620.128 131.359L623.107 142.116H583.107L586.087 131.359C586.189 131.003 586.401 130.689 586.689 130.466C586.978 130.242 587.329 130.119 587.691 130.116V130.116Z" stroke="#6B49F1" stroke-width="3" stroke-linecap="round" stroke-linejoin="round"/>
<path d="M597.107 142.116V145.45C597.107 147.218 596.37 148.913 595.057 150.164C593.744 151.414 591.964 152.116 590.107 152.116C588.251 152.116 586.47 151.414 585.158 150.164C583.845 148.913 583.107 147.218 583.107 145.45V142.116" stroke="#6B49F1" stroke-width="3" stroke-linecap="round" stroke-linejoin="round"/>
<path d="M609.107 142.116V145.45C609.107 147.218 608.475 148.913 607.35 150.164C606.225 151.414 604.699 152.116 603.107 152.116C601.516 152.116 599.99 151.414 598.865 150.164C597.74 148.913 597.107 147.218 597.107 145.45V142.116" stroke="#6B49F1" stroke-width="3" stroke-linecap="round" stroke-linejoin="round"/>
<path d="M623.107 142.116V145.45C623.107 147.218 622.37 148.913 621.057 150.164C619.744 151.414 617.964 152.116 616.107 152.116C614.251 152.116 612.47 151.414 611.158 150.164C609.845 148.913 609.107 147.218 609.107 145.45V142.116" stroke="#6B49F1" stroke-width="3" stroke-linecap="round" stroke-linejoin="round"/>
<g filter="url(#filter4_bdi_103_2965)">
<rect x="604.998" y="253.313" width="133.255" height="133.255" rx="66.6274" transform="rotate(-0.561514 604.998 253.313)" fill="url(#paint3_linear_103_2965)" fill-opacity="0.93" shape-rendering="crispEdges"/>
</g>
<circle cx="684.498" cy="297.507" r="16.5" fill="#F9DCEF"/>
<path d="M658.998 301.238L658.998 336.776C658.998 338.561 660.453 340.007 662.248 340.007L681.748 340.007C683.543 340.007 684.998 338.561 684.998 336.776L684.998 301.238C684.998 299.454 683.543 298.007 681.748 298.007L662.248 298.007C660.453 298.007 658.998 299.454 658.998 301.238Z" stroke="#FF65CB" stroke-width="3" stroke-linecap="round" stroke-linejoin="round"/>
<path d="M671.998 330.007C670.893 330.007 669.998 330.903 669.998 332.007C669.998 333.112 670.893 334.007 671.998 334.007C673.103 334.007 673.998 333.112 673.998 332.007C673.998 330.903 673.103 330.007 671.998 330.007Z" fill="#FF65CB"/>
<g filter="url(#filter5_bdi_103_2965)">
<rect x="535.998" y="419.313" width="133.255" height="133.255" rx="66.6274" transform="rotate(-0.561514 535.998 419.313)" fill="url(#paint4_linear_103_2965)" fill-opacity="0.93" shape-rendering="crispEdges"/>
</g>
<circle cx="620.498" cy="498.507" r="16.5" fill="#C8E7CB"/>
<path d="M583.998 471.007H621.998V497.452C621.998 497.864 621.831 498.26 621.534 498.552C621.237 498.843 620.835 499.007 620.415 499.007H585.581C585.161 499.007 584.759 498.843 584.462 498.552C584.165 498.26 583.998 497.864 583.998 497.452V471.007Z" stroke="#54CC60" stroke-width="3" stroke-linecap="round" stroke-linejoin="round"/>
<path d="M621.998 471.007L602.998 488.007L583.998 471.007" stroke="#54CC60" stroke-width="3" stroke-linecap="round" stroke-linejoin="round"/>
<g filter="url(#filter6_bdi_103_2965)">
<rect x="362.998" y="500.313" width="133.255" height="133.255" rx="66.6274" transform="rotate(-0.561514 362.998 500.313)" fill="url(#paint5_linear_103_2965)" fill-opacity="0.93" shape-rendering="crispEdges"/>
</g>
<circle cx="412.498" cy="558.507" r="16.5" fill="#F0E4D1"/>
<path d="M408.239 572.174C406.249 568.821 405.552 564.858 406.278 561.028C407.004 557.198 409.103 553.764 412.181 551.373C415.26 548.981 419.106 547.795 422.996 548.038C426.887 548.282 430.555 549.937 433.312 552.693C436.068 555.45 437.724 559.118 437.967 563.009C438.21 566.9 437.024 570.745 434.633 573.824C432.241 576.902 428.808 579.001 424.977 579.727C421.147 580.453 417.184 579.756 413.831 577.766L408.306 579.342C408.078 579.406 407.838 579.408 407.609 579.348C407.38 579.288 407.171 579.168 407.004 579.001C406.837 578.834 406.717 578.625 406.657 578.396C406.597 578.168 406.6 577.927 406.664 577.699L408.239 572.174Z" stroke="#FFB545" stroke-width="3" stroke-linecap="round" stroke-linejoin="round"/>
<path d="M420.998 580.31C421.779 582.545 423.044 584.577 424.703 586.261C426.362 587.945 428.373 589.238 430.59 590.046C432.807 590.855 435.176 591.159 437.525 590.937C439.873 590.714 442.143 589.971 444.171 588.761V588.761L449.687 590.339C449.915 590.404 450.155 590.406 450.383 590.346C450.612 590.286 450.82 590.166 450.987 589.998C451.154 589.831 451.273 589.622 451.333 589.392C451.393 589.163 451.391 588.922 451.327 588.694L449.754 583.157C451.158 580.791 451.93 578.101 451.994 575.347C452.058 572.594 451.412 569.871 450.12 567.442C448.827 565.012 446.931 562.959 444.616 561.482C442.301 560.004 439.644 559.152 436.904 559.007" stroke="#FFB545" stroke-width="3" stroke-linecap="round" stroke-linejoin="round"/>
<g filter="url(#filter7_bdi_103_2965)">
<rect x="192.998" y="419.313" width="133.255" height="133.255" rx="66.6274" transform="rotate(-0.561514 192.998 419.313)" fill="url(#paint6_linear_103_2965)" fill-opacity="0.93" shape-rendering="crispEdges"/>
</g>
<circle cx="244.498" cy="468.507" r="16.5" fill="#FFDEDE"/>
<path d="M242.998 507.007C242.995 506.355 243.125 505.71 243.381 505.107C243.636 504.505 244.011 503.957 244.486 503.496C244.96 503.035 245.523 502.67 246.143 502.422C246.763 502.174 247.428 502.048 248.098 502.051H276.998V469.007H248.098C247.428 469.004 246.763 469.131 246.143 469.379C245.523 469.627 244.96 469.992 244.486 470.453C244.011 470.914 243.636 471.461 243.381 472.064C243.125 472.666 242.995 473.312 242.998 473.964V507.007Z" stroke="#FF5F5F" stroke-width="3" stroke-linecap="round" stroke-linejoin="round"/>
<path d="M242.998 507.007V509.007H272.998" stroke="#FF5F5F" stroke-width="3" stroke-linecap="round" stroke-linejoin="round"/>
<g filter="url(#filter8_bdi_103_2965)">
<rect x="113.998" y="252.313" width="133.255" height="133.255" rx="66.6274" transform="rotate(-0.561514 113.998 252.313)" fill="url(#paint7_linear_103_2965)" fill-opacity="0.93" shape-rendering="crispEdges"/>
</g>
<path d="M177.998 319.882C182.14 319.882 185.498 316.524 185.498 312.382C185.498 308.24 182.14 304.882 177.998 304.882C173.856 304.882 170.498 308.24 170.498 312.382C170.498 316.524 173.856 319.882 177.998 319.882Z" stroke="#1ACCB7" stroke-width="3" stroke-linecap="round" stroke-linejoin="round"/>
<circle cx="189.498" cy="336.507" r="16.5" fill="#C6ECE6"/>
<path d="M196.748 312.382C196.748 329.257 177.998 342.382 177.998 342.382C177.998 342.382 159.248 329.257 159.248 312.382C159.248 307.409 161.223 302.64 164.74 299.124C168.256 295.608 173.025 293.632 177.998 293.632C182.971 293.632 187.74 295.608 191.256 299.124C194.773 302.64 196.748 307.409 196.748 312.382V312.382Z" stroke="#1ACCB7" stroke-width="3" stroke-linecap="round" stroke-linejoin="round"/>
<g filter="url(#filter9_bdi_103_2965)">
<rect x="192.998" y="82.313" width="133.255" height="133.255" rx="66.6274" transform="rotate(-0.561514 192.998 82.313)" fill="url(#paint8_linear_103_2965)" fill-opacity="0.93" shape-rendering="crispEdges"/>
</g>
<circle cx="276.498" cy="161.507" r="16.5" fill="#D1EAF2"/>
<path d="M268.811 159.82H244.721L238.836 127.462C238.767 127.074 238.565 126.723 238.265 126.469C237.964 126.215 237.585 126.073 237.191 126.07H233.373" stroke="#37C4F0" stroke-width="3" stroke-linecap="round" stroke-linejoin="round"/>
<path d="M246.873 168.257C249.203 168.257 251.092 166.368 251.092 164.038C251.092 161.708 249.203 159.82 246.873 159.82C244.543 159.82 242.654 161.708 242.654 164.038C242.654 166.368 244.543 168.257 246.873 168.257Z" stroke="#37C4F0" stroke-width="3" stroke-linecap="round" stroke-linejoin="round"/>
<path d="M268.811 168.257C271.14 168.257 273.029 166.368 273.029 164.038C273.029 161.708 271.14 159.82 268.811 159.82C266.481 159.82 264.592 161.708 264.592 164.038C264.592 166.368 266.481 168.257 268.811 168.257Z" stroke="#37C4F0" stroke-width="3" stroke-linecap="round" stroke-linejoin="round"/>
<path d="M243.182 151.382H269.675C270.464 151.385 271.229 151.109 271.834 150.603C272.44 150.098 272.848 149.395 272.987 148.619L275.561 134.507H240.123" stroke="#37C4F0" stroke-width="3" stroke-linecap="round" stroke-linejoin="round"/>
<g filter="url(#filter10_bdi_103_2965)">
<rect x="303.998" y="216.3" width="234.007" height="234.007" rx="117.003" transform="rotate(-0.561514 303.998 216.3)" fill="url(#paint9_linear_103_2965)" fill-opacity="0.93" shape-rendering="crispEdges"/>
</g>
<g filter="url(#filter11_bdi_103_2965)">
<rect x="322.975" y="234.909" width="196.42" height="196.42" rx="98.2101" transform="rotate(-0.561514 322.975 234.909)" fill="url(#paint10_linear_103_2965)" fill-opacity="0.93" shape-rendering="crispEdges"/>
</g>
</g>
<defs>
<filter id="filter0_d_103_2965" x="0.647461" y="23.8168" width="852.255" height="792.095" filterUnits="userSpaceOnUse" color-interpolation-filters="sRGB">
<feFlood flood-opacity="0" result="BackgroundImageFix"/>
<feColorMatrix in="SourceAlpha" type="matrix" values="0 0 0 0 0 0 0 0 0 0 0 0 0 0 0 0 0 0 127 0" result="hardAlpha"/>
<feOffset dy="69"/>
<feGaussianBlur stdDeviation="57"/>
<feComposite in2="hardAlpha" operator="out"/>
<feColorMatrix type="matrix" values="0 0 0 0 0.486275 0 0 0 0 0.0784314 0 0 0 0 0.992157 0 0 0 0.08 0"/>
<feBlend mode="normal" in2="BackgroundImageFix" result="effect1_dropShadow_103_2965"/>
<feBlend mode="normal" in="SourceGraphic" in2="effect1_dropShadow_103_2965" result="shape"/>
</filter>
<filter id="filter1_bdi_103_2965" x="277.139" y="193.709" width="290.008" height="297.446" filterUnits="userSpaceOnUse" color-interpolation-filters="sRGB">
<feFlood flood-opacity="0" result="BackgroundImageFix"/>
<feGaussianBlur in="BackgroundImageFix" stdDeviation="10.7192"/>
<feComposite in2="SourceAlpha" operator="in" result="effect1_backgroundBlur_103_2965"/>
<feColorMatrix in="SourceAlpha" type="matrix" values="0 0 0 0 0 0 0 0 0 0 0 0 0 0 0 0 0 0 127 0" result="hardAlpha"/>
<feOffset dy="14"/>
<feGaussianBlur stdDeviation="14"/>
<feComposite in2="hardAlpha" operator="out"/>
<feColorMatrix type="matrix" values="0 0 0 0 0.804167 0 0 0 0 0.804167 0 0 0 0 0.804167 0 0 0 0.25 0"/>
<feBlend mode="normal" in2="effect1_backgroundBlur_103_2965" result="effect2_dropShadow_103_2965"/>
<feBlend mode="normal" in="SourceGraphic" in2="effect2_dropShadow_103_2965" result="shape"/>
<feColorMatrix in="SourceAlpha" type="matrix" values="0 0 0 0 0 0 0 0 0 0 0 0 0 0 0 0 0 0 127 0" result="hardAlpha"/>
<feOffset dx="-2.57262" dy="2.57262"/>
<feComposite in2="hardAlpha" operator="arithmetic" k2="-1" k3="1"/>
<feColorMatrix type="matrix" values="0 0 0 0 1 0 0 0 0 1 0 0 0 0 1 0 0 0 1 0"/>
<feBlend mode="normal" in2="shape" result="effect3_innerShadow_103_2965"/>
</filter>
<filter id="filter2_bdi_103_2965" x="295.933" y="212.503" width="252.42" height="259.859" filterUnits="userSpaceOnUse" color-interpolation-filters="sRGB">
<feFlood flood-opacity="0" result="BackgroundImageFix"/>
<feGaussianBlur in="BackgroundImageFix" stdDeviation="10.7192"/>
<feComposite in2="SourceAlpha" operator="in" result="effect1_backgroundBlur_103_2965"/>
<feColorMatrix in="SourceAlpha" type="matrix" values="0 0 0 0 0 0 0 0 0 0 0 0 0 0 0 0 0 0 127 0" result="hardAlpha"/>
<feOffset dy="14"/>
<feGaussianBlur stdDeviation="14"/>
<feComposite in2="hardAlpha" operator="out"/>
<feColorMatrix type="matrix" values="0 0 0 0 0.804167 0 0 0 0 0.804167 0 0 0 0 0.804167 0 0 0 0.25 0"/>
<feBlend mode="normal" in2="effect1_backgroundBlur_103_2965" result="effect2_dropShadow_103_2965"/>
<feBlend mode="normal" in="SourceGraphic" in2="effect2_dropShadow_103_2965" result="shape"/>
<feColorMatrix in="SourceAlpha" type="matrix" values="0 0 0 0 0 0 0 0 0 0 0 0 0 0 0 0 0 0 127 0" result="hardAlpha"/>
<feOffset dx="-2.57262" dy="2.57262"/>
<feComposite in2="hardAlpha" operator="arithmetic" k2="-1" k3="1"/>
<feColorMatrix type="matrix" values="0 0 0 0 1 0 0 0 0 1 0 0 0 0 1 0 0 0 1 0"/>
<feBlend mode="normal" in2="shape" result="effect3_innerShadow_103_2965"/>
</filter>
<filter id="filter3_bdi_103_2965" x="508.647" y="60.2184" width="189.255" height="196.693" filterUnits="userSpaceOnUse" color-interpolation-filters="sRGB">
<feFlood flood-opacity="0" result="BackgroundImageFix"/>
<feGaussianBlur in="BackgroundImageFix" stdDeviation="10.7192"/>
<feComposite in2="SourceAlpha" operator="in" result="effect1_backgroundBlur_103_2965"/>
<feColorMatrix in="SourceAlpha" type="matrix" values="0 0 0 0 0 0 0 0 0 0 0 0 0 0 0 0 0 0 127 0" result="hardAlpha"/>
<feOffset dy="14"/>
<feGaussianBlur stdDeviation="14"/>
<feComposite in2="hardAlpha" operator="out"/>
<feColorMatrix type="matrix" values="0 0 0 0 0.804167 0 0 0 0 0.804167 0 0 0 0 0.804167 0 0 0 0.25 0"/>
<feBlend mode="normal" in2="effect1_backgroundBlur_103_2965" result="effect2_dropShadow_103_2965"/>
<feBlend mode="normal" in="SourceGraphic" in2="effect2_dropShadow_103_2965" result="shape"/>
<feColorMatrix in="SourceAlpha" type="matrix" values="0 0 0 0 0 0 0 0 0 0 0 0 0 0 0 0 0 0 127 0" result="hardAlpha"/>
<feOffset dx="-2.57262" dy="2.57262"/>
<feComposite in2="hardAlpha" operator="arithmetic" k2="-1" k3="1"/>
<feColorMatrix type="matrix" values="0 0 0 0 1 0 0 0 0 1 0 0 0 0 1 0 0 0 1 0"/>
<feBlend mode="normal" in2="shape" result="effect3_innerShadow_103_2965"/>
</filter>
<filter id="filter4_bdi_103_2965" x="577.647" y="231.218" width="189.255" height="196.693" filterUnits="userSpaceOnUse" color-interpolation-filters="sRGB">
<feFlood flood-opacity="0" result="BackgroundImageFix"/>
<feGaussianBlur in="BackgroundImageFix" stdDeviation="10.7192"/>
<feComposite in2="SourceAlpha" operator="in" result="effect1_backgroundBlur_103_2965"/>
<feColorMatrix in="SourceAlpha" type="matrix" values="0 0 0 0 0 0 0 0 0 0 0 0 0 0 0 0 0 0 127 0" result="hardAlpha"/>
<feOffset dy="14"/>
<feGaussianBlur stdDeviation="14"/>
<feComposite in2="hardAlpha" operator="out"/>
<feColorMatrix type="matrix" values="0 0 0 0 0.804167 0 0 0 0 0.804167 0 0 0 0 0.804167 0 0 0 0.25 0"/>
<feBlend mode="normal" in2="effect1_backgroundBlur_103_2965" result="effect2_dropShadow_103_2965"/>
<feBlend mode="normal" in="SourceGraphic" in2="effect2_dropShadow_103_2965" result="shape"/>
<feColorMatrix in="SourceAlpha" type="matrix" values="0 0 0 0 0 0 0 0 0 0 0 0 0 0 0 0 0 0 127 0" result="hardAlpha"/>
<feOffset dx="-2.57262" dy="2.57262"/>
<feComposite in2="hardAlpha" operator="arithmetic" k2="-1" k3="1"/>
<feColorMatrix type="matrix" values="0 0 0 0 1 0 0 0 0 1 0 0 0 0 1 0 0 0 1 0"/>
<feBlend mode="normal" in2="shape" result="effect3_innerShadow_103_2965"/>
</filter>
<filter id="filter5_bdi_103_2965" x="508.647" y="397.218" width="189.255" height="196.693" filterUnits="userSpaceOnUse" color-interpolation-filters="sRGB">
<feFlood flood-opacity="0" result="BackgroundImageFix"/>
<feGaussianBlur in="BackgroundImageFix" stdDeviation="10.7192"/>
<feComposite in2="SourceAlpha" operator="in" result="effect1_backgroundBlur_103_2965"/>
<feColorMatrix in="SourceAlpha" type="matrix" values="0 0 0 0 0 0 0 0 0 0 0 0 0 0 0 0 0 0 127 0" result="hardAlpha"/>
<feOffset dy="14"/>
<feGaussianBlur stdDeviation="14"/>
<feComposite in2="hardAlpha" operator="out"/>
<feColorMatrix type="matrix" values="0 0 0 0 0.804167 0 0 0 0 0.804167 0 0 0 0 0.804167 0 0 0 0.25 0"/>
<feBlend mode="normal" in2="effect1_backgroundBlur_103_2965" result="effect2_dropShadow_103_2965"/>
<feBlend mode="normal" in="SourceGraphic" in2="effect2_dropShadow_103_2965" result="shape"/>
<feColorMatrix in="SourceAlpha" type="matrix" values="0 0 0 0 0 0 0 0 0 0 0 0 0 0 0 0 0 0 127 0" result="hardAlpha"/>
<feOffset dx="-2.57262" dy="2.57262"/>
<feComposite in2="hardAlpha" operator="arithmetic" k2="-1" k3="1"/>
<feColorMatrix type="matrix" values="0 0 0 0 1 0 0 0 0 1 0 0 0 0 1 0 0 0 1 0"/>
<feBlend mode="normal" in2="shape" result="effect3_innerShadow_103_2965"/>
</filter>
<filter id="filter6_bdi_103_2965" x="335.647" y="478.218" width="189.255" height="196.693" filterUnits="userSpaceOnUse" color-interpolation-filters="sRGB">
<feFlood flood-opacity="0" result="BackgroundImageFix"/>
<feGaussianBlur in="BackgroundImageFix" stdDeviation="10.7192"/>
<feComposite in2="SourceAlpha" operator="in" result="effect1_backgroundBlur_103_2965"/>
<feColorMatrix in="SourceAlpha" type="matrix" values="0 0 0 0 0 0 0 0 0 0 0 0 0 0 0 0 0 0 127 0" result="hardAlpha"/>
<feOffset dy="14"/>
<feGaussianBlur stdDeviation="14"/>
<feComposite in2="hardAlpha" operator="out"/>
<feColorMatrix type="matrix" values="0 0 0 0 0.804167 0 0 0 0 0.804167 0 0 0 0 0.804167 0 0 0 0.25 0"/>
<feBlend mode="normal" in2="effect1_backgroundBlur_103_2965" result="effect2_dropShadow_103_2965"/>
<feBlend mode="normal" in="SourceGraphic" in2="effect2_dropShadow_103_2965" result="shape"/>
<feColorMatrix in="SourceAlpha" type="matrix" values="0 0 0 0 0 0 0 0 0 0 0 0 0 0 0 0 0 0 127 0" result="hardAlpha"/>
<feOffset dx="-2.57262" dy="2.57262"/>
<feComposite in2="hardAlpha" operator="arithmetic" k2="-1" k3="1"/>
<feColorMatrix type="matrix" values="0 0 0 0 1 0 0 0 0 1 0 0 0 0 1 0 0 0 1 0"/>
<feBlend mode="normal" in2="shape" result="effect3_innerShadow_103_2965"/>
</filter>
<filter id="filter7_bdi_103_2965" x="165.647" y="397.218" width="189.255" height="196.693" filterUnits="userSpaceOnUse" color-interpolation-filters="sRGB">
<feFlood flood-opacity="0" result="BackgroundImageFix"/>
<feGaussianBlur in="BackgroundImageFix" stdDeviation="10.7192"/>
<feComposite in2="SourceAlpha" operator="in" result="effect1_backgroundBlur_103_2965"/>
<feColorMatrix in="SourceAlpha" type="matrix" values="0 0 0 0 0 0 0 0 0 0 0 0 0 0 0 0 0 0 127 0" result="hardAlpha"/>
<feOffset dy="14"/>
<feGaussianBlur stdDeviation="14"/>
<feComposite in2="hardAlpha" operator="out"/>
<feColorMatrix type="matrix" values="0 0 0 0 0.804167 0 0 0 0 0.804167 0 0 0 0 0.804167 0 0 0 0.25 0"/>
<feBlend mode="normal" in2="effect1_backgroundBlur_103_2965" result="effect2_dropShadow_103_2965"/>
<feBlend mode="normal" in="SourceGraphic" in2="effect2_dropShadow_103_2965" result="shape"/>
<feColorMatrix in="SourceAlpha" type="matrix" values="0 0 0 0 0 0 0 0 0 0 0 0 0 0 0 0 0 0 127 0" result="hardAlpha"/>
<feOffset dx="-2.57262" dy="2.57262"/>
<feComposite in2="hardAlpha" operator="arithmetic" k2="-1" k3="1"/>
<feColorMatrix type="matrix" values="0 0 0 0 1 0 0 0 0 1 0 0 0 0 1 0 0 0 1 0"/>
<feBlend mode="normal" in2="shape" result="effect3_innerShadow_103_2965"/>
</filter>
<filter id="filter8_bdi_103_2965" x="86.6475" y="230.218" width="189.255" height="196.693" filterUnits="userSpaceOnUse" color-interpolation-filters="sRGB">
<feFlood flood-opacity="0" result="BackgroundImageFix"/>
<feGaussianBlur in="BackgroundImageFix" stdDeviation="10.7192"/>
<feComposite in2="SourceAlpha" operator="in" result="effect1_backgroundBlur_103_2965"/>
<feColorMatrix in="SourceAlpha" type="matrix" values="0 0 0 0 0 0 0 0 0 0 0 0 0 0 0 0 0 0 127 0" result="hardAlpha"/>
<feOffset dy="14"/>
<feGaussianBlur stdDeviation="14"/>
<feComposite in2="hardAlpha" operator="out"/>
<feColorMatrix type="matrix" values="0 0 0 0 0.804167 0 0 0 0 0.804167 0 0 0 0 0.804167 0 0 0 0.25 0"/>
<feBlend mode="normal" in2="effect1_backgroundBlur_103_2965" result="effect2_dropShadow_103_2965"/>
<feBlend mode="normal" in="SourceGraphic" in2="effect2_dropShadow_103_2965" result="shape"/>
<feColorMatrix in="SourceAlpha" type="matrix" values="0 0 0 0 0 0 0 0 0 0 0 0 0 0 0 0 0 0 127 0" result="hardAlpha"/>
<feOffset dx="-2.57262" dy="2.57262"/>
<feComposite in2="hardAlpha" operator="arithmetic" k2="-1" k3="1"/>
<feColorMatrix type="matrix" values="0 0 0 0 1 0 0 0 0 1 0 0 0 0 1 0 0 0 1 0"/>
<feBlend mode="normal" in2="shape" result="effect3_innerShadow_103_2965"/>
</filter>
<filter id="filter9_bdi_103_2965" x="165.647" y="60.2184" width="189.255" height="196.693" filterUnits="userSpaceOnUse" color-interpolation-filters="sRGB">
<feFlood flood-opacity="0" result="BackgroundImageFix"/>
<feGaussianBlur in="BackgroundImageFix" stdDeviation="10.7192"/>
<feComposite in2="SourceAlpha" operator="in" result="effect1_backgroundBlur_103_2965"/>
<feColorMatrix in="SourceAlpha" type="matrix" values="0 0 0 0 0 0 0 0 0 0 0 0 0 0 0 0 0 0 127 0" result="hardAlpha"/>
<feOffset dy="14"/>
<feGaussianBlur stdDeviation="14"/>
<feComposite in2="hardAlpha" operator="out"/>
<feColorMatrix type="matrix" values="0 0 0 0 0.804167 0 0 0 0 0.804167 0 0 0 0 0.804167 0 0 0 0.25 0"/>
<feBlend mode="normal" in2="effect1_backgroundBlur_103_2965" result="effect2_dropShadow_103_2965"/>
<feBlend mode="normal" in="SourceGraphic" in2="effect2_dropShadow_103_2965" result="shape"/>
<feColorMatrix in="SourceAlpha" type="matrix" values="0 0 0 0 0 0 0 0 0 0 0 0 0 0 0 0 0 0 127 0" result="hardAlpha"/>
<feOffset dx="-2.57262" dy="2.57262"/>
<feComposite in2="hardAlpha" operator="arithmetic" k2="-1" k3="1"/>
<feColorMatrix type="matrix" values="0 0 0 0 1 0 0 0 0 1 0 0 0 0 1 0 0 0 1 0"/>
<feBlend mode="normal" in2="shape" result="effect3_innerShadow_103_2965"/>
</filter>
<filter id="filter10_bdi_103_2965" x="277.139" y="193.709" width="290.008" height="297.446" filterUnits="userSpaceOnUse" color-interpolation-filters="sRGB">
<feFlood flood-opacity="0" result="BackgroundImageFix"/>
<feGaussianBlur in="BackgroundImageFix" stdDeviation="10.7192"/>
<feComposite in2="SourceAlpha" operator="in" result="effect1_backgroundBlur_103_2965"/>
<feColorMatrix in="SourceAlpha" type="matrix" values="0 0 0 0 0 0 0 0 0 0 0 0 0 0 0 0 0 0 127 0" result="hardAlpha"/>
<feOffset dy="14"/>
<feGaussianBlur stdDeviation="14"/>
<feComposite in2="hardAlpha" operator="out"/>
<feColorMatrix type="matrix" values="0 0 0 0 0.804167 0 0 0 0 0.804167 0 0 0 0 0.804167 0 0 0 0.25 0"/>
<feBlend mode="normal" in2="effect1_backgroundBlur_103_2965" result="effect2_dropShadow_103_2965"/>
<feBlend mode="normal" in="SourceGraphic" in2="effect2_dropShadow_103_2965" result="shape"/>
<feColorMatrix in="SourceAlpha" type="matrix" values="0 0 0 0 0 0 0 0 0 0 0 0 0 0 0 0 0 0 127 0" result="hardAlpha"/>
<feOffset dx="-2.57262" dy="2.57262"/>
<feComposite in2="hardAlpha" operator="arithmetic" k2="-1" k3="1"/>
<feColorMatrix type="matrix" values="0 0 0 0 1 0 0 0 0 1 0 0 0 0 1 0 0 0 1 0"/>
<feBlend mode="normal" in2="shape" result="effect3_innerShadow_103_2965"/>
</filter>
<filter id="filter11_bdi_103_2965" x="295.933" y="212.503" width="252.42" height="259.859" filterUnits="userSpaceOnUse" color-interpolation-filters="sRGB">
<feFlood flood-opacity="0" result="BackgroundImageFix"/>
<feGaussianBlur in="BackgroundImageFix" stdDeviation="10.7192"/>
<feComposite in2="SourceAlpha" operator="in" result="effect1_backgroundBlur_103_2965"/>
<feColorMatrix in="SourceAlpha" type="matrix" values="0 0 0 0 0 0 0 0 0 0 0 0 0 0 0 0 0 0 127 0" result="hardAlpha"/>
<feOffset dy="14"/>
<feGaussianBlur stdDeviation="14"/>
<feComposite in2="hardAlpha" operator="out"/>
<feColorMatrix type="matrix" values="0 0 0 0 0.804167 0 0 0 0 0.804167 0 0 0 0 0.804167 0 0 0 0.25 0"/>
<feBlend mode="normal" in2="effect1_backgroundBlur_103_2965" result="effect2_dropShadow_103_2965"/>
<feBlend mode="normal" in="SourceGraphic" in2="effect2_dropShadow_103_2965" result="shape"/>
<feColorMatrix in="SourceAlpha" type="matrix" values="0 0 0 0 0 0 0 0 0 0 0 0 0 0 0 0 0 0 127 0" result="hardAlpha"/>
<feOffset dx="-2.57262" dy="2.57262"/>
<feComposite in2="hardAlpha" operator="arithmetic" k2="-1" k3="1"/>
<feColorMatrix type="matrix" values="0 0 0 0 1 0 0 0 0 1 0 0 0 0 1 0 0 0 1 0"/>
<feBlend mode="normal" in2="shape" result="effect3_innerShadow_103_2965"/>
</filter>
<linearGradient id="paint0_linear_103_2965" x1="517.357" y1="301.634" x2="314.469" y2="278.574" gradientUnits="userSpaceOnUse">
<stop stop-color="#F4F4F4"/>
<stop offset="0.421875" stop-color="#F4F4F4"/>
<stop offset="1" stop-color="white"/>
</linearGradient>
<linearGradient id="paint1_linear_103_2965" x1="502.064" y1="306.536" x2="331.764" y2="287.18" gradientUnits="userSpaceOnUse">
<stop stop-color="#F4F4F4"/>
<stop offset="0.421875" stop-color="#F4F4F4"/>
<stop offset="1" stop-color="white"/>
</linearGradient>
<linearGradient id="paint2_linear_103_2965" x1="657.965" y1="129.713" x2="542.308" y2="117.715" gradientUnits="userSpaceOnUse">
<stop stop-color="#F4F4F4"/>
<stop offset="0.421875" stop-color="#F4F4F4"/>
<stop offset="1" stop-color="white"/>
</linearGradient>
<linearGradient id="paint3_linear_103_2965" x1="726.495" y1="301.906" x2="610.961" y2="288.775" gradientUnits="userSpaceOnUse">
<stop stop-color="#F4F4F4"/>
<stop offset="0.421875" stop-color="#F4F4F4"/>
<stop offset="1" stop-color="white"/>
</linearGradient>
<linearGradient id="paint4_linear_103_2965" x1="657.495" y1="467.906" x2="541.961" y2="454.775" gradientUnits="userSpaceOnUse">
<stop stop-color="#F4F4F4"/>
<stop offset="0.421875" stop-color="#F4F4F4"/>
<stop offset="1" stop-color="white"/>
</linearGradient>
<linearGradient id="paint5_linear_103_2965" x1="484.495" y1="548.906" x2="368.961" y2="535.775" gradientUnits="userSpaceOnUse">
<stop stop-color="#F4F4F4"/>
<stop offset="0.421875" stop-color="#F4F4F4"/>
<stop offset="1" stop-color="white"/>
</linearGradient>
<linearGradient id="paint6_linear_103_2965" x1="314.495" y1="467.906" x2="198.961" y2="454.775" gradientUnits="userSpaceOnUse">
<stop stop-color="#F4F4F4"/>
<stop offset="0.421875" stop-color="#F4F4F4"/>
<stop offset="1" stop-color="white"/>
</linearGradient>
<linearGradient id="paint7_linear_103_2965" x1="235.495" y1="300.906" x2="119.961" y2="287.775" gradientUnits="userSpaceOnUse">
<stop stop-color="#F4F4F4"/>
<stop offset="0.421875" stop-color="#F4F4F4"/>
<stop offset="1" stop-color="white"/>
</linearGradient>
<linearGradient id="paint8_linear_103_2965" x1="314.495" y1="130.906" x2="198.961" y2="117.775" gradientUnits="userSpaceOnUse">
<stop stop-color="#F4F4F4"/>
<stop offset="0.421875" stop-color="#F4F4F4"/>
<stop offset="1" stop-color="white"/>
</linearGradient>
<linearGradient id="paint9_linear_103_2965" x1="517.357" y1="301.634" x2="314.469" y2="278.574" gradientUnits="userSpaceOnUse">
<stop stop-color="#F4F4F4"/>
<stop offset="0.421875" stop-color="#F4F4F4"/>
<stop offset="1" stop-color="white"/>
</linearGradient>
<linearGradient id="paint10_linear_103_2965" x1="502.064" y1="306.536" x2="331.764" y2="287.18" gradientUnits="userSpaceOnUse">
<stop stop-color="#F4F4F4"/>
<stop offset="0.421875" stop-color="#F4F4F4"/>
<stop offset="1" stop-color="white"/>
</linearGradient>
</defs>
</svg>
