<svg width="286" height="80" viewBox="0 0 286 80" fill="none" xmlns="http://www.w3.org/2000/svg">
<path fill-rule="evenodd" clip-rule="evenodd" d="M35.0423 0.493838C34.542 0.995627 34.5308 1.34888 34.5308 16.3892V31.7715L35.0907 32.2946C35.7596 32.9197 36.5133 32.9621 37.2873 32.4182L37.856 32.019V16.3992V0.779367L37.2873 0.380194C36.5121 -0.164693 35.6557 -0.12134 35.0423 0.493838ZM26.3457 4.08537C25.8446 4.58793 25.8341 4.94041 25.8341 21.1167C25.8341 36.7876 25.8584 37.6649 26.3058 38.2193C26.878 38.9279 28.215 39.0053 28.8519 38.3668C29.2509 37.9669 29.2934 36.5975 29.3622 21.9699C29.4033 13.1917 29.3701 5.63794 29.2882 5.18387C29.2061 4.72979 28.9629 4.18157 28.7473 3.96531C28.1976 3.41401 26.9532 3.47609 26.3457 4.08537ZM43.6507 4.0415C43.2704 4.46299 43.2274 5.65795 43.2274 15.8423C43.2274 26.8318 43.2428 27.1892 43.739 27.6869C44.4094 28.3593 45.3806 28.3387 46.0311 27.6384C46.5396 27.0909 46.5526 26.7946 46.5526 15.7491C46.5526 5.10075 46.5245 4.39604 46.0848 3.99687C45.464 3.43325 44.1782 3.45685 43.6507 4.0415ZM17.7527 7.44705C17.2864 7.96397 17.2621 8.66971 17.1904 23.9296C17.1493 32.6984 17.1825 40.2439 17.2644 40.698C17.3465 41.152 17.5897 41.7003 17.8053 41.9165C18.355 42.4678 19.5994 42.4058 20.2069 41.7965C20.708 41.2939 20.7185 40.9414 20.7185 24.6569C20.7185 8.279 20.7105 8.02169 20.1969 7.46885C19.5311 6.75208 18.389 6.74208 17.7527 7.44705ZM52.3474 7.3765C51.9747 7.78952 51.9241 8.70639 51.9241 15.0542C51.9241 23.06 51.9261 23.0692 53.5905 23.0692C55.1955 23.0692 55.2492 22.8057 55.2492 14.931C55.2492 8.27541 55.2242 7.9083 54.7377 7.42037C54.0985 6.77928 52.906 6.75747 52.3474 7.3765ZM9.71977 11.9596C8.70252 12.3241 8.69664 12.4093 8.69664 27.0548C8.69664 40.4363 8.72196 41.227 9.16447 41.6284C9.78525 42.1921 11.0711 42.1685 11.5985 41.5838C11.9817 41.1592 12.0218 39.7724 12.0218 26.9799V12.8449L11.3478 12.3133C10.6618 11.7718 10.4012 11.7153 9.71977 11.9596ZM60.9929 12.4113C60.3705 13.0355 60.3649 13.0834 60.3649 17.8923C60.3649 22.4117 60.4012 22.7898 60.8951 23.4194C61.6139 24.3357 62.7033 24.3278 63.4305 23.4006C63.9507 22.7375 63.9717 22.4815 63.8965 17.7337C63.8195 12.8623 63.8057 12.7515 63.2141 12.2715C62.403 11.6132 61.7472 11.6545 60.9929 12.4113ZM90.4811 17.0223C88.1711 17.8492 88.2146 17.5072 88.3008 34.1003L88.3732 48.0817H91.5705H94.7678L94.8957 35.7678L95.0236 23.454H95.5896C96.1536 23.454 98.5577 26.4737 109.069 40.3855C113.519 46.2743 114.533 47.4424 115.579 47.8805C116.263 48.1673 117.378 48.2343 120.365 48.1679C123.825 48.0911 124.322 48.0247 124.831 47.5686C126.096 46.4362 126.101 46.3749 126.101 31.1858C126.101 18.4569 126.059 16.9508 125.697 16.8115C124.93 16.5164 120.08 16.6406 119.758 16.9636C119.528 17.1945 119.451 20.3099 119.451 29.4057V41.5399H118.862C118.386 41.5399 116.653 39.4068 109.846 30.4452C105.21 24.3432 100.974 18.8615 100.43 18.2637C99.8425 17.6172 99.0652 17.0718 98.5117 16.9177C97.1468 16.5375 91.635 16.6093 90.4811 17.0223ZM129.805 16.9202C129.592 17.2663 129.983 17.8463 133.705 22.7059C135.425 24.9517 138.848 29.4442 141.312 32.6894L145.792 38.5897L145.794 42.994C145.796 45.4165 145.866 47.5809 145.952 47.8041C146.183 48.4087 152.316 48.4087 152.548 47.8041C152.633 47.5809 152.704 45.4165 152.706 42.994L152.708 38.5897L154.954 35.6396C156.189 34.017 159.727 29.4172 162.816 25.4178C165.906 21.4184 168.538 17.9997 168.666 17.8207C168.794 17.6416 168.826 17.3063 168.738 17.0754C168.601 16.7168 168.096 16.6557 165.275 16.6557H161.973L161.094 17.746C160.611 18.3458 157.82 22.0687 154.89 26.0194C151.962 29.9701 149.468 33.2024 149.349 33.2024C149.23 33.2024 146.704 29.9123 143.735 25.8911C140.766 21.8699 137.996 18.147 137.579 17.6178L136.82 16.6557H133.394C131.317 16.6557 129.904 16.7599 129.805 16.9202ZM172.706 16.8748C172.44 17.0439 172.389 19.4264 172.45 28.8639C172.524 40.3596 172.54 40.6787 173.102 42.1728C173.806 44.0466 174.745 45.2608 176.317 46.3308C178.774 48.0029 178.975 48.0262 191.917 48.1419C200.755 48.221 203.725 48.1714 204.003 47.9403C204.481 47.5427 204.533 42.5746 204.064 42.1043C203.836 41.8752 201.138 41.7962 193.513 41.7949C186.936 41.7942 182.903 41.6939 182.246 41.5145C180.97 41.1667 179.903 40.1798 179.516 38.9892C179.319 38.3817 179.184 34.5608 179.114 27.5612C179.036 19.9122 178.926 16.9933 178.708 16.8546C178.3 16.5942 173.119 16.6116 172.706 16.8748ZM217.184 16.9233C213.488 17.4269 211.345 18.569 209.813 20.8517C208.223 23.2216 207.852 25.9478 208.017 34.0647C208.155 40.855 208.366 41.9966 209.902 44.2731C211.262 46.2879 213.208 47.3703 216.504 47.9452C218.931 48.3685 236.66 48.2889 238.943 47.8446C243.295 46.9975 245.42 45.2074 246.499 41.4794C247.032 39.6341 247.274 28.1766 246.838 25.4052C246.1 20.7178 244.091 18.423 239.669 17.2188C238.561 16.9172 236.199 16.8215 228.543 16.7678C223.197 16.7306 218.085 16.8004 217.184 16.9233ZM257.702 16.9189C255.476 17.3697 253.852 18.5138 252.965 20.2563C251.642 22.8581 251.645 28.948 252.971 31.5267C253.629 32.8074 254.953 34.0028 256.296 34.5298C257.302 34.9248 258.735 34.9982 267.764 35.118L278.083 35.2548L278.571 35.8604C278.953 36.3335 279.06 36.8779 279.06 38.3496C279.06 40.3324 278.752 41.375 278.066 41.7182C277.839 41.8319 271.955 41.9825 264.992 42.053L252.33 42.1813V45.1315V48.0817H266.654H280.978L282.192 47.4819C282.86 47.152 283.814 46.4047 284.312 45.8213C285.697 44.1984 286.029 42.6687 285.926 38.3786C285.844 34.999 285.787 34.637 285.115 33.2645C284.323 31.6476 283.34 30.7556 281.6 30.0763C280.619 29.693 279.094 29.615 270.235 29.4939C264.608 29.4172 259.864 29.2636 259.694 29.1527C259.295 28.8936 258.856 27.3087 258.854 26.1217C258.852 24.8809 259.314 23.6274 259.886 23.3203C260.172 23.1669 264.97 23.0677 272.201 23.0653C279.234 23.063 284.204 22.9622 284.431 22.8178C284.733 22.6262 284.815 21.9933 284.815 19.862C284.815 17.7301 284.733 17.0978 284.431 16.9066C283.962 16.609 259.176 16.6206 257.702 16.9189ZM0.511567 17.4254C0.0219974 17.9164 0 18.2804 0 25.8513C0 33.1914 0.033764 33.795 0.467829 34.1888C1.08862 34.7524 2.37444 34.7288 2.90186 34.1442C3.27659 33.7289 3.32519 32.7622 3.32519 25.7182C3.32519 18.3356 3.29142 17.7309 2.85736 17.3368C2.22301 16.7609 1.13312 16.802 0.511567 17.4254ZM69.5731 17.4254C69.0899 17.91 69.0615 18.2804 69.0615 24.1123C69.0615 27.9734 69.1631 30.4765 69.3329 30.7946C69.8885 31.8356 71.5332 31.9074 72.1911 30.9193C72.2944 30.7641 72.3806 27.74 72.3829 24.1992C72.3865 18.2853 72.3486 17.7268 71.9189 17.3368C71.2846 16.7609 70.1947 16.802 69.5731 17.4254ZM237.874 23.6464C238.64 24.0394 239.168 24.5512 239.526 25.2498C240.015 26.2015 240.053 26.7215 240.053 32.4328C240.053 42.2423 240.299 42.053 227.519 42.053C217.684 42.053 216.632 41.8383 215.498 39.5992C215.028 38.6729 214.986 38.0823 214.986 32.4328C214.986 26.7215 215.024 26.2015 215.512 25.2498C215.871 24.5512 216.398 24.0394 217.165 23.6464C218.272 23.0795 218.454 23.0692 227.519 23.0692C236.585 23.0692 236.767 23.0795 237.874 23.6464ZM52.3474 38.1611C51.9624 38.5874 51.9241 40.158 51.9241 55.4376C51.9241 71.3946 51.9478 72.2665 52.3919 72.6696C53.0262 73.2455 54.1161 73.2044 54.7377 72.5811C55.2388 72.0785 55.2492 71.726 55.2492 55.4502C55.2492 36.9836 55.3145 37.6919 53.6117 37.6919C53.1219 37.6919 52.5939 37.8876 52.3474 38.1611ZM60.8437 38.3725C60.5578 38.7183 60.4798 41.397 60.4225 52.8722L60.3521 66.9477L60.9865 67.5839C61.7469 68.3466 62.4015 68.3895 63.2141 67.7294L63.818 67.2392V52.9579C63.818 39.1172 63.8026 38.6654 63.3215 38.3124C62.6488 37.8191 61.2742 37.8525 60.8437 38.3725ZM44.1227 41.3334C43.8413 41.4935 43.5264 41.7498 43.4231 41.9029C43.3198 42.0561 43.2336 49.6961 43.2313 58.8806C43.2277 74.7357 43.2509 75.6015 43.6952 76.0046C44.381 76.6272 45.6712 76.5507 46.1543 75.8588C46.5048 75.3573 46.5526 73.2981 46.5526 58.6895V42.0902L45.8786 41.5587C45.1146 40.9558 44.847 40.9214 44.1227 41.3334ZM69.4598 45.9583C69.1206 46.4437 69.0615 47.6807 69.0615 54.2958C69.0615 61.721 69.0841 62.0856 69.5731 62.5761C70.2123 63.2172 71.4048 63.239 71.9634 62.6199C72.3381 62.2046 72.3867 61.238 72.3867 54.1939C72.3867 46.8113 72.353 46.2066 71.9189 45.8126C71.2332 45.19 69.943 45.2664 69.4598 45.9583ZM35.0907 47.7069L34.5308 48.2299V63.6022V78.9745L35.0907 79.4976C35.7596 80.1228 36.5133 80.1651 37.2873 79.6212L37.856 79.2221V63.6022V47.9824L37.2873 47.5832C36.5133 47.0393 35.7596 47.0817 35.0907 47.7069ZM1.27892 48.4085C1.0679 48.4772 0.693941 48.7094 0.447621 48.9244C0.0439948 49.2771 0 49.9364 0 55.6321C0 62.739 0.076991 63.0891 1.63753 63.0891C3.28017 63.0891 3.3257 62.8913 3.32135 55.7575C3.31905 52.2414 3.23055 49.2274 3.12414 49.0598C2.86247 48.6468 1.75109 48.2548 1.27892 48.4085ZM26.5081 52.3333L25.8341 52.8648V64.134C25.8341 75.061 25.8497 75.4186 26.3457 75.916C27.0302 76.6025 28.2357 76.5759 28.9012 75.8594C29.4218 75.2988 29.4292 75.11 29.3588 64.0358L29.2872 52.7819L28.6833 52.2917C27.9073 51.6616 27.3458 51.6724 26.5081 52.3333ZM88.2453 58.728V63.0891H89.1406H90.0358V61.8064V60.5238H92.9392C96.4511 60.5238 97.3786 60.2531 97.8648 59.0864C98.5056 57.5482 98.2109 55.4474 97.2517 54.7165C96.934 54.4746 95.639 54.381 92.5297 54.3751L88.2453 54.3668V58.728ZM104.106 55.0946C103.226 55.9774 102.944 57.4904 103.204 59.9304C103.353 61.3265 103.519 61.7728 104.109 62.3644L104.832 63.0891H108.708H112.584L113.308 62.3631C113.863 61.8067 114.075 61.2913 114.216 60.1572C114.582 57.2234 113.986 55.1241 112.643 54.6118C112.289 54.4771 110.387 54.3668 108.416 54.3668H104.832L104.106 55.0946ZM119.053 55.0723C119.147 55.4602 119.741 57.4284 120.373 59.4458L121.523 63.114L122.981 63.0373L124.439 62.9609L125.581 59.5617C126.209 57.6921 126.792 56.1626 126.876 56.1626C126.96 56.1626 127.362 57.2306 127.769 58.5356C128.176 59.8406 128.714 61.4052 128.965 62.0124L129.42 63.1161L130.766 63.0386L132.112 62.9609L133.44 58.9845C134.17 56.7975 134.775 54.864 134.783 54.6875C134.793 54.4838 134.438 54.3668 133.813 54.3668H132.828L131.833 57.8301C131.286 59.7349 130.778 61.2934 130.705 61.2934C130.631 61.2934 130.049 59.7639 129.41 57.8942L128.249 54.4951H126.855H125.462L124.313 57.8942C123.68 59.7639 123.099 61.2934 123.02 61.2934C122.941 61.2934 122.422 59.7349 121.867 57.8301L120.858 54.3668H119.871C118.923 54.3668 118.891 54.3953 119.053 55.0723ZM141.016 54.6259C139.883 55.0836 139.529 56.0695 139.539 58.7436C139.55 61.465 139.9 62.3885 141.095 62.8441C141.448 62.9788 143.348 63.0891 145.318 63.0891H148.898L148.818 62.2554L148.738 61.4216L145.43 61.3496C143.525 61.308 141.978 61.1584 141.785 60.9973C141.6 60.8434 141.448 60.4429 141.448 60.1076V59.4976H145.157H148.866V58.728V57.9584H145.157H141.448V57.3483C141.448 56.2031 141.62 56.1682 148.418 55.9222C148.742 55.9107 148.866 55.6921 148.866 55.1365V54.3668L145.221 54.383C143.217 54.392 141.324 54.5013 141.016 54.6259ZM154.237 58.728V63.0891H155.261H156.284V61.6782V60.2672L158.138 60.2711C159.158 60.2734 160.112 60.3598 160.257 60.4635C160.403 60.5671 160.963 61.2002 161.503 61.8706C162.369 62.9457 162.601 63.0891 163.476 63.0891C164.022 63.0891 164.465 63.0027 164.461 62.8967C164.457 62.7908 164.012 62.1915 163.472 61.565L162.49 60.4258L163.381 59.5823C164.256 58.7549 164.271 58.7059 164.165 57.0315C163.999 54.4228 163.881 54.3668 158.557 54.3668H154.237V58.728ZM170.685 54.6739C169.767 55.119 169.329 56.4076 169.329 58.6644C169.329 62.761 169.754 63.0891 175.071 63.0891H178.793V62.3244C178.793 61.3657 178.579 61.3103 174.572 61.228L171.503 61.1651L171.423 60.3385L171.343 59.512L175.004 59.4407L178.665 59.3693L178.746 58.6639L178.827 57.9584H175.085H171.342L171.423 57.1246C171.497 56.3499 171.584 56.2786 172.654 56.1175C173.287 56.022 174.927 55.9356 176.299 55.9251L178.793 55.9061V55.1365V54.3668L175.02 54.3843C172.921 54.3938 170.998 54.5223 170.685 54.6739ZM184.164 58.728V63.0891L188.065 63.0886C193.646 63.0881 194.348 62.6176 194.38 58.8563C194.399 56.62 194.008 55.4617 193.037 54.8676C192.321 54.4294 191.731 54.3686 188.193 54.3679L184.164 54.3668V58.728ZM204.115 58.728V63.0891H208.68C212.955 63.0891 213.274 63.0558 213.718 62.5637C214.332 61.8837 214.415 59.3455 213.835 58.9832C213.519 58.7857 213.508 58.6528 213.771 58.2262C213.947 57.9417 214.091 57.1367 214.091 56.4371C214.091 54.4602 213.84 54.3668 208.534 54.3668H204.115V58.728ZM218.695 54.5131C218.695 54.5934 219.673 55.9463 220.869 57.5194C222.963 60.2741 223.043 60.4299 223.043 61.7344V63.0891H224.066H225.089V61.7528C225.089 60.464 225.171 60.3095 227.401 57.3917L229.712 54.3668L228.616 54.3774C227.536 54.3876 227.493 54.423 225.805 56.6952L224.09 59.0027L222.383 56.6847C220.743 54.4594 220.635 54.3668 219.685 54.3668C219.14 54.3668 218.695 54.4325 218.695 54.5131ZM238.9 55.012C238.76 55.3809 238.646 57.3494 238.646 59.386V63.0891H239.669H240.692V59.6259C240.692 57.7211 240.778 56.1677 240.884 56.1742C240.99 56.1806 242.231 57.7101 243.641 59.5733L246.207 62.9609H247.734H249.261L249.331 58.6639L249.401 54.3668H248.5H247.598V57.8301C247.598 59.7349 247.512 61.2882 247.407 61.2818C247.301 61.2754 246.061 59.7459 244.651 57.8827L242.087 54.4951L240.621 54.4182C239.244 54.3458 239.139 54.382 238.9 55.012ZM255.016 58.728V63.0891H256.039H257.062V58.728V54.3668H256.039H255.016V58.728ZM262.519 54.7699C262.435 54.9915 262.422 56.5448 262.49 58.2216C262.626 61.5319 262.929 62.3875 264.126 62.8441C264.48 62.9788 266.323 63.0891 268.222 63.0891H271.675L271.594 62.2554L271.514 61.4216L268.317 61.3524C265.681 61.2954 265.064 61.2079 264.8 60.8544C264.586 60.5681 264.48 59.4201 264.48 57.3963V54.3668H263.577C262.992 54.3668 262.619 54.5087 262.519 54.7699ZM277.858 54.6739C276.826 55.1742 276.445 56.4717 276.542 59.1592C276.628 61.5373 276.649 61.6097 277.465 62.3408L278.301 63.0891H282.149H285.998L285.918 62.2554L285.838 61.4216L282.769 61.3588C278.767 61.2767 278.548 61.22 278.548 60.2693V59.5117L282.193 59.4404L285.838 59.3693L285.919 58.6639L286 57.9584H282.274H278.548V57.3483C278.548 57.013 278.701 56.6113 278.888 56.4556C279.156 56.2321 281.99 56.0051 285.646 55.914C285.829 55.9094 285.966 55.5769 285.966 55.1365V54.3668L282.193 54.3843C280.094 54.3938 278.171 54.5223 277.858 54.6739ZM9.20821 56.4191C8.73091 56.8978 8.69664 57.2742 8.69664 62.0448C8.69664 66.2558 8.76442 67.2253 9.08185 67.5434C9.76786 68.2314 10.5014 68.3094 11.2212 67.7707L11.8939 67.2671L11.9633 62.1051C12.0287 57.2175 12.0049 56.9153 11.5156 56.4245C10.8567 55.7637 9.86403 55.7614 9.20821 56.4191ZM95.5185 56.1562C96.0398 56.355 96.1738 56.579 96.1708 57.2465C96.1639 58.6921 96.0255 58.7534 92.9566 58.6731L90.1637 58.5997L90.0826 57.6108C89.9473 55.9561 90.0202 55.9061 92.5691 55.9061C93.8303 55.9061 95.1576 56.0187 95.5185 56.1562ZM111.969 56.5926C112.356 57.1215 112.395 60.1028 112.024 60.7972C111.785 61.2451 111.463 61.2934 108.708 61.2934C105.953 61.2934 105.631 61.2451 105.392 60.7972C105.021 60.1018 105.06 57.1192 105.447 56.6077C106.057 55.8011 111.382 55.7888 111.969 56.5926ZM161.753 56.237C162.083 56.4787 162.182 56.8414 162.121 57.5838L162.039 58.5997L159.161 58.6723L156.284 58.7449V57.3255V55.9061H158.793C160.437 55.9061 161.457 56.02 161.753 56.237ZM190.239 56.0425C192.083 56.258 192.349 56.5964 192.349 58.728C192.349 61.1997 192.218 61.2934 188.75 61.2934H185.955V58.7467C185.955 56.5664 186.016 56.1883 186.384 56.1172C187.37 55.9268 188.981 55.8956 190.239 56.0425ZM211.739 56.0713C212.218 56.2003 212.313 56.3778 212.25 57.03L212.172 57.8301H209.103C206.086 57.8301 206.032 57.8198 205.949 57.2342C205.776 56.0046 205.977 55.9058 208.647 55.9097C210.023 55.9115 211.415 55.9843 211.739 56.0713ZM18.3568 56.9938C17.2314 57.3717 17.0943 58.374 17.1846 65.564C17.2587 71.4823 17.3055 72.0598 17.7527 72.5546C18.389 73.2593 19.5314 73.2491 20.1969 72.5326C20.6952 71.9964 20.7185 71.6608 20.7185 65.0219C20.7185 59.3242 20.6507 57.9756 20.3427 57.5343C19.8718 56.8601 19.2551 56.6924 18.3568 56.9938ZM211.515 59.4042C212.243 59.5502 212.32 59.6505 212.25 60.3662L212.172 61.1651L209.039 61.2372L205.906 61.3093V60.446C205.906 59.9714 205.982 59.5061 206.076 59.4122C206.293 59.1944 210.438 59.1882 211.515 59.4042Z" fill="white"/>
</svg>
