<svg width="206" height="53" viewBox="0 0 206 53" fill="none" xmlns="http://www.w3.org/2000/svg">
<path d="M61.1029 15.5124H63.8029C63.8562 15.9658 64.0629 16.3791 64.4229 16.7524C64.7962 17.1124 65.2829 17.3991 65.8829 17.6124C66.4829 17.8124 67.1562 17.9124 67.9029 17.9124C68.5829 17.9124 69.1429 17.8391 69.5829 17.6924C70.0229 17.5458 70.3495 17.3391 70.5629 17.0724C70.7762 16.8058 70.8829 16.4858 70.8829 16.1124C70.8829 15.7524 70.7495 15.4791 70.4829 15.2924C70.2162 15.0924 69.7962 14.9324 69.2229 14.8124C68.6495 14.6791 67.8962 14.5458 66.9629 14.4124C66.2295 14.3058 65.5362 14.1591 64.8829 13.9724C64.2295 13.7724 63.6495 13.5191 63.1429 13.2124C62.6495 12.9058 62.2562 12.5324 61.9629 12.0924C61.6829 11.6391 61.5429 11.1058 61.5429 10.4924C61.5429 9.73244 61.7562 9.06577 62.1829 8.49244C62.6229 7.9191 63.2695 7.47244 64.1229 7.15244C64.9762 6.83244 66.0229 6.67244 67.2629 6.67244C69.1295 6.67244 70.5629 7.07244 71.5629 7.87244C72.5762 8.6591 73.0695 9.74577 73.0429 11.1324H70.4429C70.3895 10.3458 70.0562 9.7791 69.4429 9.43244C68.8429 9.08577 68.0829 8.91244 67.1629 8.91244C66.3095 8.91244 65.6029 9.0391 65.0429 9.29244C64.4962 9.54577 64.2229 9.9791 64.2229 10.5924C64.2229 10.8324 64.2895 11.0458 64.4229 11.2324C64.5562 11.4058 64.7829 11.5591 65.1029 11.6924C65.4229 11.8258 65.8562 11.9524 66.4029 12.0724C66.9495 12.1924 67.6295 12.3124 68.4429 12.4324C69.2029 12.5391 69.8895 12.6858 70.5029 12.8724C71.1295 13.0458 71.6629 13.2791 72.1029 13.5724C72.5562 13.8524 72.9029 14.2124 73.1429 14.6524C73.3829 15.0924 73.5029 15.6324 73.5029 16.2724C73.5029 17.0591 73.2962 17.7458 72.8829 18.3324C72.4829 18.9058 71.8562 19.3524 71.0029 19.6724C70.1629 19.9924 69.0695 20.1524 67.7229 20.1524C66.7629 20.1524 65.9162 20.0524 65.1829 19.8524C64.4495 19.6391 63.8162 19.3591 63.2829 19.0124C62.7495 18.6658 62.3162 18.2858 61.9829 17.8724C61.6495 17.4591 61.4095 17.0458 61.2629 16.6324C61.1295 16.2191 61.0762 15.8458 61.1029 15.5124ZM86.0096 6.93244H99.6496V9.15244H86.0096V6.93244ZM91.5096 8.87244H94.1696V19.8724H91.5096V8.87244ZM124.763 14.1524V6.93244H127.423V14.4324C127.423 15.2858 127.296 16.0324 127.043 16.6724C126.803 17.3124 126.456 17.8524 126.003 18.2924C125.55 18.7324 125.016 19.0924 124.403 19.3724C123.803 19.6391 123.143 19.8324 122.423 19.9524C121.716 20.0724 120.97 20.1324 120.183 20.1324C119.37 20.1324 118.596 20.0724 117.863 19.9524C117.13 19.8324 116.456 19.6391 115.843 19.3724C115.243 19.0924 114.723 18.7324 114.283 18.2924C113.843 17.8524 113.496 17.3124 113.243 16.6724C113.003 16.0324 112.883 15.2858 112.883 14.4324V6.93244H115.543V14.1524C115.543 15.1658 115.743 15.9391 116.143 16.4724C116.543 16.9924 117.09 17.3524 117.783 17.5524C118.49 17.7391 119.29 17.8324 120.183 17.8324C121.05 17.8324 121.823 17.7391 122.503 17.5524C123.196 17.3524 123.743 16.9924 124.143 16.4724C124.556 15.9391 124.763 15.1658 124.763 14.1524ZM149.2 6.93244C150.654 6.93244 151.867 7.10577 152.84 7.45244C153.814 7.7991 154.587 8.27244 155.16 8.87244C155.747 9.4591 156.16 10.1391 156.4 10.9124C156.654 11.6858 156.78 12.4991 156.78 13.3524C156.78 14.2058 156.64 15.0258 156.36 15.8124C156.094 16.5991 155.66 17.2991 155.06 17.9124C154.474 18.5124 153.694 18.9924 152.72 19.3524C151.76 19.6991 150.587 19.8724 149.2 19.8724H141.8V6.93244H149.2ZM144.46 17.5924H149.14C150.1 17.5924 150.894 17.4791 151.52 17.2524C152.16 17.0124 152.667 16.6924 153.04 16.2924C153.414 15.8924 153.68 15.4391 153.84 14.9324C154 14.4258 154.08 13.8991 154.08 13.3524C154.08 12.8058 154 12.2858 153.84 11.7924C153.68 11.2991 153.414 10.8591 153.04 10.4724C152.667 10.0858 152.16 9.7791 151.52 9.55244C150.894 9.32577 150.1 9.21244 149.14 9.21244H144.46V17.5924ZM171.058 6.93244H173.718V19.8724H171.058V6.93244ZM196.163 20.1324C194.443 20.1324 192.97 19.8658 191.743 19.3324C190.53 18.7858 189.596 18.0124 188.943 17.0124C188.303 16.0124 187.983 14.8124 187.983 13.4124C187.983 11.9991 188.303 10.7924 188.943 9.79244C189.596 8.79244 190.53 8.02577 191.743 7.49244C192.97 6.94577 194.443 6.67244 196.163 6.67244C197.896 6.67244 199.37 6.94577 200.583 7.49244C201.796 8.02577 202.723 8.79244 203.363 9.79244C204.016 10.7924 204.343 11.9991 204.343 13.4124C204.343 14.8124 204.016 16.0124 203.363 17.0124C202.723 18.0124 201.796 18.7858 200.583 19.3324C199.37 19.8658 197.896 20.1324 196.163 20.1324ZM196.163 17.8324C197.23 17.8324 198.163 17.6724 198.963 17.3524C199.776 17.0324 200.41 16.5458 200.863 15.8924C201.33 15.2391 201.563 14.4124 201.563 13.4124C201.563 12.4124 201.33 11.5858 200.863 10.9324C200.41 10.2791 199.776 9.79244 198.963 9.47244C198.163 9.1391 197.23 8.97244 196.163 8.97244C195.11 8.97244 194.17 9.1391 193.343 9.47244C192.516 9.79244 191.87 10.2791 191.403 10.9324C190.936 11.5858 190.703 12.4124 190.703 13.4124C190.703 14.4124 190.936 15.2391 191.403 15.8924C191.87 16.5458 192.516 17.0324 193.343 17.3524C194.17 17.6724 195.11 17.8324 196.163 17.8324ZM69.4029 44.1324C68.2029 44.1324 67.1162 43.9924 66.1429 43.7124C65.1829 43.4324 64.3495 43.0124 63.6429 42.4524C62.9495 41.8924 62.4162 41.1991 62.0429 40.3724C61.6695 39.5458 61.4829 38.5924 61.4829 37.5124C61.4829 36.4191 61.6762 35.4524 62.0629 34.6124C62.4629 33.7591 63.0229 33.0391 63.7429 32.4524C64.4762 31.8658 65.3429 31.4258 66.3429 31.1324C67.3562 30.8258 68.4762 30.6724 69.7029 30.6724C71.1562 30.6724 72.4095 30.8791 73.4629 31.2924C74.5162 31.6924 75.3429 32.2591 75.9429 32.9924C76.5562 33.7258 76.9029 34.5991 76.9829 35.6124H74.4229C74.2495 35.0791 73.9629 34.6191 73.5629 34.2324C73.1762 33.8324 72.6629 33.5258 72.0229 33.3124C71.3829 33.0858 70.6095 32.9724 69.7029 32.9724C68.5429 32.9724 67.5495 33.1591 66.7229 33.5324C65.9095 33.9058 65.2895 34.4324 64.8629 35.1124C64.4362 35.7924 64.2229 36.5924 64.2229 37.5124C64.2229 38.4058 64.4095 39.1791 64.7829 39.8324C65.1562 40.4724 65.7295 40.9658 66.5029 41.3124C67.2895 41.6591 68.2895 41.8324 69.5029 41.8324C70.4362 41.8324 71.2562 41.7124 71.9629 41.4724C72.6829 41.2191 73.2829 40.8858 73.7629 40.4724C74.2429 40.0458 74.5829 39.5724 74.7829 39.0524L75.8229 38.6724C75.6495 40.3924 74.9962 41.7324 73.8629 42.6924C72.7429 43.6524 71.2562 44.1324 69.4029 44.1324ZM75.1429 43.8724C75.1429 43.4591 75.1695 42.9858 75.2229 42.4524C75.2762 41.9058 75.3429 41.3591 75.4229 40.8124C75.5029 40.2524 75.5762 39.7391 75.6429 39.2724H69.7229V37.5724H77.4429V43.8724H75.1429ZM95.3441 43.8724V30.9324H104.124C105.124 30.9324 105.991 31.0724 106.724 31.3524C107.471 31.6191 108.051 32.0458 108.464 32.6324C108.877 33.2058 109.084 33.9458 109.084 34.8524C109.084 35.4658 108.977 35.9858 108.764 36.4124C108.551 36.8391 108.251 37.1858 107.864 37.4524C107.491 37.7191 107.057 37.9258 106.564 38.0724C106.071 38.2058 105.544 38.2924 104.984 38.3324L104.704 38.1724C105.637 38.1858 106.404 38.2658 107.004 38.4124C107.604 38.5458 108.051 38.7991 108.344 39.1724C108.651 39.5324 108.804 40.0724 108.804 40.7924V43.8724H106.144V40.9724C106.144 40.4791 106.057 40.0991 105.884 39.8324C105.711 39.5524 105.397 39.3591 104.944 39.2524C104.504 39.1458 103.864 39.0924 103.024 39.0924H98.0041V43.8724H95.3441ZM98.0041 37.0124H104.124C104.871 37.0124 105.437 36.8324 105.824 36.4724C106.224 36.1124 106.424 35.6258 106.424 35.0124C106.424 34.4258 106.224 33.9791 105.824 33.6724C105.437 33.3658 104.871 33.2124 104.124 33.2124H98.0041V37.0124ZM129.628 38.4724V41.6524H139.608V43.8724H126.968V30.9324H139.588V33.1524H129.628V36.3724H137.788V38.4724H129.628ZM160.099 38.4724V41.6524H170.079V43.8724H157.439V30.9324H170.059V33.1524H160.099V36.3724H168.259V38.4724H160.099ZM201.03 41.2324L200.19 41.5724V30.9324H202.85V43.8724H200.19L189.73 33.6524L190.57 33.3124V43.8724H187.91V30.9324H190.57L201.03 41.2324Z" fill="#030211"/>
<path d="M25.8043 0.770874L27.283 18.1891L34.6299 2.32706L30.062 19.2006L42.391 6.80794L32.3275 21.1016L48.1515 13.673L33.8062 23.6627L51.2166 22.0943L34.3197 26.5752L51.2166 31.0561L33.8062 29.4876L48.1515 39.4774L32.3275 32.0488L42.391 46.3425L30.062 33.9498L34.6299 50.8233L27.283 34.9613L25.8043 52.3795L24.3256 34.9613L16.9787 50.8233L21.5466 33.9498L9.21762 46.3425L19.2811 32.0488L3.45712 39.4774L17.8024 29.4876L0.392025 31.0561L17.2889 26.5752L0.392025 22.0943L17.8024 23.6627L3.45712 13.673L19.2811 21.1016L9.21762 6.80794L21.5466 19.2006L16.9787 2.32706L24.3256 18.1891L25.8043 0.770874Z" fill="#030211"/>
</svg>
