<svg width="144" height="39" viewBox="0 0 144 39" fill="none" xmlns="http://www.w3.org/2000/svg">
<path d="M0.102852 9.51244H2.80285C2.85619 9.96577 3.06285 10.3791 3.42285 10.7524C3.79619 11.1124 4.28285 11.3991 4.88285 11.6124C5.48285 11.8124 6.15619 11.9124 6.90285 11.9124C7.58285 11.9124 8.14285 11.8391 8.58285 11.6924C9.02285 11.5458 9.34952 11.3391 9.56285 11.0724C9.77619 10.8058 9.88285 10.4858 9.88285 10.1124C9.88285 9.75244 9.74952 9.4791 9.48285 9.29244C9.21619 9.09244 8.79619 8.93244 8.22285 8.81244C7.64952 8.6791 6.89619 8.54577 5.96285 8.41244C5.22952 8.30577 4.53619 8.1591 3.88285 7.97244C3.22952 7.77244 2.64952 7.5191 2.14285 7.21244C1.64952 6.90577 1.25619 6.53244 0.962852 6.09244C0.682852 5.6391 0.542852 5.10577 0.542852 4.49244C0.542852 3.73244 0.756185 3.06577 1.18285 2.49244C1.62285 1.9191 2.26952 1.47244 3.12285 1.15244C3.97619 0.832436 5.02285 0.672436 6.26285 0.672436C8.12952 0.672436 9.56285 1.07244 10.5629 1.87244C11.5762 2.6591 12.0695 3.74577 12.0429 5.13244H9.44285C9.38952 4.34577 9.05619 3.7791 8.44285 3.43244C7.84285 3.08577 7.08285 2.91244 6.16285 2.91244C5.30952 2.91244 4.60285 3.0391 4.04285 3.29244C3.49619 3.54577 3.22285 3.9791 3.22285 4.59244C3.22285 4.83244 3.28952 5.04577 3.42285 5.23244C3.55619 5.40577 3.78285 5.5591 4.10285 5.69244C4.42285 5.82577 4.85619 5.95244 5.40285 6.07244C5.94952 6.19244 6.62952 6.31244 7.44285 6.43244C8.20285 6.5391 8.88952 6.68577 9.50285 6.87244C10.1295 7.04577 10.6629 7.2791 11.1029 7.57244C11.5562 7.85244 11.9029 8.21244 12.1429 8.65244C12.3829 9.09244 12.5029 9.63244 12.5029 10.2724C12.5029 11.0591 12.2962 11.7458 11.8829 12.3324C11.4829 12.9058 10.8562 13.3524 10.0029 13.6724C9.16285 13.9924 8.06952 14.1524 6.72285 14.1524C5.76285 14.1524 4.91619 14.0524 4.18285 13.8524C3.44952 13.6391 2.81619 13.3591 2.28285 13.0124C1.74952 12.6658 1.31619 12.2858 0.982852 11.8724C0.649518 11.4591 0.409518 11.0458 0.262852 10.6324C0.129518 10.2191 0.0761849 9.84577 0.102852 9.51244ZM25.0096 0.932436H38.6496V3.15244H25.0096V0.932436ZM30.5096 2.87244H33.1696V13.8724H30.5096V2.87244ZM63.7632 8.15244V0.932436H66.4232V8.43244C66.4232 9.28577 66.2965 10.0324 66.0432 10.6724C65.8032 11.3124 65.4565 11.8524 65.0032 12.2924C64.5498 12.7324 64.0165 13.0924 63.4032 13.3724C62.8032 13.6391 62.1432 13.8324 61.4232 13.9524C60.7165 14.0724 59.9698 14.1324 59.1832 14.1324C58.3698 14.1324 57.5965 14.0724 56.8632 13.9524C56.1298 13.8324 55.4565 13.6391 54.8432 13.3724C54.2432 13.0924 53.7232 12.7324 53.2832 12.2924C52.8432 11.8524 52.4965 11.3124 52.2432 10.6724C52.0032 10.0324 51.8832 9.28577 51.8832 8.43244V0.932436H54.5432V8.15244C54.5432 9.16577 54.7432 9.9391 55.1432 10.4724C55.5432 10.9924 56.0898 11.3524 56.7832 11.5524C57.4898 11.7391 58.2898 11.8324 59.1832 11.8324C60.0498 11.8324 60.8232 11.7391 61.5032 11.5524C62.1965 11.3524 62.7432 10.9924 63.1432 10.4724C63.5565 9.9391 63.7632 9.16577 63.7632 8.15244ZM88.2004 0.932436C89.6537 0.932436 90.867 1.10577 91.8404 1.45244C92.8137 1.7991 93.587 2.27244 94.1604 2.87244C94.747 3.4591 95.1604 4.1391 95.4004 4.91244C95.6537 5.68577 95.7804 6.4991 95.7804 7.35244C95.7804 8.20577 95.6404 9.02577 95.3604 9.81244C95.0937 10.5991 94.6604 11.2991 94.0604 11.9124C93.4737 12.5124 92.6937 12.9924 91.7204 13.3524C90.7604 13.6991 89.587 13.8724 88.2004 13.8724H80.8004V0.932436H88.2004ZM83.4604 11.5924H88.1404C89.1004 11.5924 89.8937 11.4791 90.5204 11.2524C91.1604 11.0124 91.667 10.6924 92.0404 10.2924C92.4137 9.89244 92.6804 9.4391 92.8404 8.93244C93.0004 8.42577 93.0804 7.8991 93.0804 7.35244C93.0804 6.80577 93.0004 6.28577 92.8404 5.79244C92.6804 5.2991 92.4137 4.8591 92.0404 4.47244C91.667 4.08577 91.1604 3.7791 90.5204 3.55244C89.8937 3.32577 89.1004 3.21244 88.1404 3.21244H83.4604V11.5924ZM110.058 0.932436H112.718V13.8724H110.058V0.932436ZM135.163 14.1324C133.443 14.1324 131.97 13.8658 130.743 13.3324C129.53 12.7858 128.596 12.0124 127.943 11.0124C127.303 10.0124 126.983 8.81244 126.983 7.41244C126.983 5.9991 127.303 4.79244 127.943 3.79244C128.596 2.79244 129.53 2.02577 130.743 1.49244C131.97 0.945769 133.443 0.672436 135.163 0.672436C136.896 0.672436 138.37 0.945769 139.583 1.49244C140.796 2.02577 141.723 2.79244 142.363 3.79244C143.016 4.79244 143.343 5.9991 143.343 7.41244C143.343 8.81244 143.016 10.0124 142.363 11.0124C141.723 12.0124 140.796 12.7858 139.583 13.3324C138.37 13.8658 136.896 14.1324 135.163 14.1324ZM135.163 11.8324C136.23 11.8324 137.163 11.6724 137.963 11.3524C138.776 11.0324 139.41 10.5458 139.863 9.89244C140.33 9.2391 140.563 8.41244 140.563 7.41244C140.563 6.41244 140.33 5.58577 139.863 4.93244C139.41 4.2791 138.776 3.79244 137.963 3.47244C137.163 3.1391 136.23 2.97244 135.163 2.97244C134.11 2.97244 133.17 3.1391 132.343 3.47244C131.516 3.79244 130.87 4.2791 130.403 4.93244C129.936 5.58577 129.703 6.41244 129.703 7.41244C129.703 8.41244 129.936 9.2391 130.403 9.89244C130.87 10.5458 131.516 11.0324 132.343 11.3524C133.17 11.6724 134.11 11.8324 135.163 11.8324ZM8.40285 38.1324C7.20285 38.1324 6.11619 37.9924 5.14285 37.7124C4.18285 37.4324 3.34952 37.0124 2.64285 36.4524C1.94952 35.8924 1.41618 35.1991 1.04285 34.3724C0.669518 33.5458 0.482852 32.5924 0.482852 31.5124C0.482852 30.4191 0.676185 29.4524 1.06285 28.6124C1.46285 27.7591 2.02285 27.0391 2.74285 26.4524C3.47619 25.8658 4.34285 25.4258 5.34285 25.1324C6.35619 24.8258 7.47619 24.6724 8.70285 24.6724C10.1562 24.6724 11.4095 24.8791 12.4629 25.2924C13.5162 25.6924 14.3429 26.2591 14.9429 26.9924C15.5562 27.7258 15.9029 28.5991 15.9829 29.6124H13.4229C13.2495 29.0791 12.9629 28.6191 12.5629 28.2324C12.1762 27.8324 11.6629 27.5258 11.0229 27.3124C10.3829 27.0858 9.60952 26.9724 8.70285 26.9724C7.54285 26.9724 6.54952 27.1591 5.72285 27.5324C4.90952 27.9058 4.28952 28.4324 3.86285 29.1124C3.43619 29.7924 3.22285 30.5924 3.22285 31.5124C3.22285 32.4058 3.40952 33.1791 3.78285 33.8324C4.15619 34.4724 4.72952 34.9658 5.50285 35.3124C6.28952 35.6591 7.28952 35.8324 8.50285 35.8324C9.43619 35.8324 10.2562 35.7124 10.9629 35.4724C11.6829 35.2191 12.2829 34.8858 12.7629 34.4724C13.2429 34.0458 13.5829 33.5724 13.7829 33.0524L14.8229 32.6724C14.6495 34.3924 13.9962 35.7324 12.8629 36.6924C11.7429 37.6524 10.2562 38.1324 8.40285 38.1324ZM14.1429 37.8724C14.1429 37.4591 14.1695 36.9858 14.2229 36.4524C14.2762 35.9058 14.3429 35.3591 14.4229 34.8124C14.5029 34.2524 14.5762 33.7391 14.6429 33.2724H8.72285V31.5724H16.4429V37.8724H14.1429ZM34.3441 37.8724V24.9324H43.1241C44.1241 24.9324 44.9908 25.0724 45.7241 25.3524C46.4708 25.6191 47.0508 26.0458 47.4641 26.6324C47.8774 27.2058 48.0841 27.9458 48.0841 28.8524C48.0841 29.4658 47.9774 29.9858 47.7641 30.4124C47.5508 30.8391 47.2508 31.1858 46.8641 31.4524C46.4908 31.7191 46.0574 31.9258 45.5641 32.0724C45.0708 32.2058 44.5441 32.2924 43.9841 32.3324L43.7041 32.1724C44.6374 32.1858 45.4041 32.2658 46.0041 32.4124C46.6041 32.5458 47.0508 32.7991 47.3441 33.1724C47.6508 33.5324 47.8041 34.0724 47.8041 34.7924V37.8724H45.1441V34.9724C45.1441 34.4791 45.0574 34.0991 44.8841 33.8324C44.7108 33.5524 44.3974 33.3591 43.9441 33.2524C43.5041 33.1458 42.8641 33.0924 42.0241 33.0924H37.0041V37.8724H34.3441ZM37.0041 31.0124H43.1241C43.8708 31.0124 44.4374 30.8324 44.8241 30.4724C45.2241 30.1124 45.4241 29.6258 45.4241 29.0124C45.4241 28.4258 45.2241 27.9791 44.8241 27.6724C44.4374 27.3658 43.8708 27.2124 43.1241 27.2124H37.0041V31.0124ZM68.6275 32.4724V35.6524H78.6075V37.8724H65.9675V24.9324H78.5875V27.1524H68.6275V30.3724H76.7875V32.4724H68.6275ZM99.0986 32.4724V35.6524H109.079V37.8724H96.4386V24.9324H109.059V27.1524H99.0986V30.3724H107.259V32.4724H99.0986ZM140.03 35.2324L139.19 35.5724V24.9324H141.85V37.8724H139.19L128.73 27.6524L129.57 27.3124V37.8724H126.91V24.9324H129.57L140.03 35.2324Z" fill="#030211"/>
</svg>
